<svg width="388" height="278" viewBox="0 0 388 278" fill="none" xmlns="http://www.w3.org/2000/svg">
<g filter="url(#filter0_d_630:43931)">
<path fill-rule="evenodd" clip-rule="evenodd" d="M36 69.7935C36 63.8571 40.4039 59 45.7864 59H99.6114C104.994 59 109.398 63.8571 109.398 69.7935V145.348C109.398 151.284 104.994 156.141 99.6114 156.141H45.7864C40.4039 156.141 36 151.284 36 145.348V69.7935ZM58.4271 100.632C59.5531 100.632 60.4659 99.5965 60.4659 98.3191C60.4659 97.0417 59.5531 96.0062 58.4271 96.0062C57.3011 96.0062 56.3883 97.0417 56.3883 98.3191C56.3883 99.5965 57.3011 100.632 58.4271 100.632ZM89.0095 98.3191C89.0095 99.5965 88.0967 100.632 86.9707 100.632C85.8447 100.632 84.9318 99.5965 84.9318 98.3191C84.9318 97.0417 85.8447 96.0062 86.9707 96.0062C88.0967 96.0062 89.0095 97.0417 89.0095 98.3191ZM60.4659 121.444L65.047 121.448C65.0523 117.991 68.3054 115.827 72.7096 115.819C77.1145 115.811 80.3507 117.963 80.3507 121.446H84.9318C84.9318 115.809 79.4811 112.185 72.6996 112.196C65.9303 112.208 60.4745 115.838 60.4659 121.444Z" fill="url(#paint0_linear_630:43931)"/>
</g>
<g filter="url(#filter1_d_630:43931)">
<path d="M71.1893 50.0789C67.9291 49.7208 65.5826 48.5928 64.1495 46.6949C62.7165 44.797 62 41.9859 62 38.2617V36.8114H71.1355V37.8857C71.1355 40.6072 71.9416 41.968 73.5537 41.968C74.2702 41.968 74.8076 41.6994 75.1659 41.1623C75.56 40.5893 75.757 39.891 75.757 39.0674C75.757 38.4587 75.2196 37.5634 74.1449 36.3817L66.6215 28.7543C63.8271 26.0328 62.4299 23.0427 62.4299 19.784C62.4299 17.2415 63.2539 15.1288 64.9019 13.4457C66.5857 11.7269 68.6815 10.6347 71.1893 10.1691V7H75.7033V10.1154C78.6768 10.4735 80.9338 11.691 82.4743 13.768C84.0506 15.845 84.8388 18.6023 84.8388 22.04H75.4883L75.4346 19.8377C75.3988 19.3722 75.1659 18.9604 74.736 18.6023C74.3061 18.2084 73.8224 18.0114 73.285 18.0114C72.676 18.0114 72.1565 18.2084 71.7266 18.6023C71.2967 18.9604 71.0818 19.4438 71.0818 20.0526C71.0818 20.912 71.9416 22.2011 73.6612 23.92L81.0234 31.1714C82.2056 32.3173 83.155 33.6602 83.8715 35.2C84.6238 36.7398 85 38.405 85 40.1954C85 43.0244 84.1402 45.3162 82.4206 47.0709C80.7009 48.7897 78.4618 49.8103 75.7033 50.1326V54H71.1893V50.0789Z" fill="#EF6A6E"/>
</g>
<g filter="url(#filter2_d_630:43931)">
<path fill-rule="evenodd" clip-rule="evenodd" d="M7 90.7935C7 84.8571 11.4039 80 16.7864 80H70.6114C75.9939 80 80.3978 84.8571 80.3978 90.7935V166.348C80.3978 172.284 75.9939 177.141 70.6114 177.141H16.7864C11.4039 177.141 7 172.284 7 166.348V90.7935ZM29.4271 121.632C30.5531 121.632 31.4659 120.596 31.4659 119.319C31.4659 118.042 30.5531 117.006 29.4271 117.006C28.3011 117.006 27.3883 118.042 27.3883 119.319C27.3883 120.596 28.3011 121.632 29.4271 121.632ZM60.0095 119.319C60.0095 120.596 59.0967 121.632 57.9707 121.632C56.8447 121.632 55.9318 120.596 55.9318 119.319C55.9318 118.042 56.8447 117.006 57.9707 117.006C59.0967 117.006 60.0095 118.042 60.0095 119.319ZM31.4659 142.444L36.047 142.448C36.0523 138.991 39.3054 136.827 43.7096 136.819C48.1145 136.811 51.3507 138.963 51.3507 142.446H55.9318C55.9318 136.809 50.4811 133.185 43.6996 133.196C36.9303 133.208 31.4745 136.838 31.4659 142.444Z" fill="url(#paint1_linear_630:43931)"/>
</g>
<g filter="url(#filter3_d_630:43931)">
<path d="M42.1893 71.0789C38.9291 70.7208 36.5826 69.5928 35.1495 67.6949C33.7165 65.797 33 62.9859 33 59.2617V57.8114H42.1355V58.8857C42.1355 61.6072 42.9416 62.968 44.5537 62.968C45.2702 62.968 45.8076 62.6994 46.1659 62.1623C46.56 61.5893 46.757 60.891 46.757 60.0674C46.757 59.4587 46.2196 58.5634 45.1449 57.3817L37.6215 49.7543C34.8271 47.0328 33.4299 44.0427 33.4299 40.784C33.4299 38.2415 34.2539 36.1288 35.9019 34.4457C37.5857 32.7269 39.6815 31.6347 42.1893 31.1691V28H46.7033V31.1154C49.6768 31.4735 51.9338 32.691 53.4743 34.768C55.0506 36.845 55.8388 39.6023 55.8388 43.04H46.4883L46.4346 40.8377C46.3988 40.3722 46.1659 39.9604 45.736 39.6023C45.3061 39.2084 44.8224 39.0114 44.285 39.0114C43.676 39.0114 43.1565 39.2084 42.7266 39.6023C42.2967 39.9604 42.0818 40.4438 42.0818 41.0526C42.0818 41.912 42.9416 43.2011 44.6612 44.92L52.0234 52.1714C53.2056 53.3173 54.155 54.6602 54.8715 56.2C55.6238 57.7398 56 59.405 56 61.1954C56 64.0244 55.1402 66.3162 53.4206 68.0709C51.7009 69.7897 49.4618 70.8103 46.7033 71.1326V75H42.1893V71.0789Z" fill="#EF6A6E"/>
</g>
<g filter="url(#filter4_d_630:43931)">
<path fill-rule="evenodd" clip-rule="evenodd" d="M44 121.793C44 115.857 48.4039 111 53.7864 111H107.611C112.994 111 117.398 115.857 117.398 121.793V197.348C117.398 203.284 112.994 208.141 107.611 208.141H53.7864C48.4039 208.141 44 203.284 44 197.348V121.793ZM66.4271 152.632C67.5531 152.632 68.4659 151.596 68.4659 150.319C68.4659 149.042 67.5531 148.006 66.4271 148.006C65.3011 148.006 64.3883 149.042 64.3883 150.319C64.3883 151.596 65.3011 152.632 66.4271 152.632ZM97.0095 150.319C97.0095 151.596 96.0967 152.632 94.9707 152.632C93.8447 152.632 92.9318 151.596 92.9318 150.319C92.9318 149.042 93.8447 148.006 94.9707 148.006C96.0967 148.006 97.0095 149.042 97.0095 150.319ZM68.4659 173.444L73.047 173.448C73.0523 169.991 76.3054 167.827 80.7096 167.819C85.1145 167.811 88.3507 169.963 88.3507 173.446H92.9318C92.9318 167.809 87.4811 164.185 80.6996 164.196C73.9303 164.208 68.4745 167.838 68.4659 173.444Z" fill="url(#paint2_linear_630:43931)"/>
</g>
<g filter="url(#filter5_d_630:43931)">
<path d="M79.1893 102.079C75.9291 101.721 73.5826 100.593 72.1495 98.6949C70.7165 96.797 70 93.9859 70 90.2617V88.8114H79.1355V89.8857C79.1355 92.6072 79.9416 93.968 81.5537 93.968C82.2702 93.968 82.8076 93.6994 83.1659 93.1623C83.56 92.5893 83.757 91.891 83.757 91.0674C83.757 90.4587 83.2196 89.5634 82.1449 88.3817L74.6215 80.7543C71.8271 78.0328 70.4299 75.0427 70.4299 71.784C70.4299 69.2415 71.2539 67.1288 72.9019 65.4457C74.5857 63.7269 76.6815 62.6347 79.1893 62.1691V59H83.7033V62.1154C86.6768 62.4735 88.9338 63.691 90.4743 65.768C92.0506 67.845 92.8388 70.6023 92.8388 74.04H83.4883L83.4346 71.8377C83.3988 71.3722 83.1659 70.9604 82.736 70.6023C82.3061 70.2084 81.8224 70.0114 81.285 70.0114C80.676 70.0114 80.1565 70.2084 79.7266 70.6023C79.2967 70.9604 79.0818 71.4438 79.0818 72.0526C79.0818 72.912 79.9416 74.2011 81.6612 75.92L89.0234 83.1714C90.2056 84.3173 91.155 85.6602 91.8715 87.2C92.6238 88.7398 93 90.405 93 92.1954C93 95.0244 92.1402 97.3162 90.4206 99.0709C88.7009 100.79 86.4618 101.81 83.7033 102.133V106H79.1893V102.079Z" fill="#EF6A6E"/>
</g>
<g filter="url(#filter6_d_630:43931)">
<path fill-rule="evenodd" clip-rule="evenodd" d="M7 152.793C7 146.857 11.4039 142 16.7864 142H70.6114C75.9939 142 80.3978 146.857 80.3978 152.793V228.348C80.3978 234.284 75.9939 239.141 70.6114 239.141H16.7864C11.4039 239.141 7 234.284 7 228.348V152.793ZM29.4271 183.632C30.5531 183.632 31.4659 182.596 31.4659 181.319C31.4659 180.042 30.5531 179.006 29.4271 179.006C28.3011 179.006 27.3883 180.042 27.3883 181.319C27.3883 182.596 28.3011 183.632 29.4271 183.632ZM60.0095 181.319C60.0095 182.596 59.0967 183.632 57.9707 183.632C56.8447 183.632 55.9318 182.596 55.9318 181.319C55.9318 180.042 56.8447 179.006 57.9707 179.006C59.0967 179.006 60.0095 180.042 60.0095 181.319ZM31.4659 204.444L36.047 204.448C36.0523 200.991 39.3054 198.827 43.7096 198.819C48.1145 198.811 51.3507 200.963 51.3507 204.446H55.9318C55.9318 198.809 50.4811 195.185 43.6996 195.196C36.9303 195.208 31.4745 198.838 31.4659 204.444Z" fill="url(#paint3_linear_630:43931)"/>
</g>
<g filter="url(#filter7_d_630:43931)">
<path d="M42.1893 133.079C38.9291 132.721 36.5826 131.593 35.1495 129.695C33.7165 127.797 33 124.986 33 121.262V119.811H42.1355V120.886C42.1355 123.607 42.9416 124.968 44.5537 124.968C45.2702 124.968 45.8076 124.699 46.1659 124.162C46.56 123.589 46.757 122.891 46.757 122.067C46.757 121.459 46.2196 120.563 45.1449 119.382L37.6215 111.754C34.8271 109.033 33.4299 106.043 33.4299 102.784C33.4299 100.242 34.2539 98.1288 35.9019 96.4457C37.5857 94.7269 39.6815 93.6347 42.1893 93.1691V90H46.7033V93.1154C49.6768 93.4735 51.9338 94.691 53.4743 96.768C55.0506 98.845 55.8388 101.602 55.8388 105.04H46.4883L46.4346 102.838C46.3988 102.372 46.1659 101.96 45.736 101.602C45.3061 101.208 44.8224 101.011 44.285 101.011C43.676 101.011 43.1565 101.208 42.7266 101.602C42.2967 101.96 42.0818 102.444 42.0818 103.053C42.0818 103.912 42.9416 105.201 44.6612 106.92L52.0234 114.171C53.2056 115.317 54.155 116.66 54.8715 118.2C55.6238 119.74 56 121.405 56 123.195C56 126.024 55.1402 128.316 53.4206 130.071C51.7009 131.79 49.4618 132.81 46.7033 133.133V137H42.1893V133.079Z" fill="#EF6A6E"/>
</g>
<g filter="url(#filter8_d_630:43931)">
<path fill-rule="evenodd" clip-rule="evenodd" d="M122 69.7935C122 63.8571 126.404 59 131.786 59H185.611C190.994 59 195.398 63.8571 195.398 69.7935V145.348C195.398 151.284 190.994 156.141 185.611 156.141H131.786C126.404 156.141 122 151.284 122 145.348V69.7935ZM144.427 100.632C145.553 100.632 146.466 99.5965 146.466 98.3191C146.466 97.0417 145.553 96.0062 144.427 96.0062C143.301 96.0062 142.388 97.0417 142.388 98.3191C142.388 99.5965 143.301 100.632 144.427 100.632ZM175.009 98.3191C175.009 99.5965 174.097 100.632 172.971 100.632C171.845 100.632 170.932 99.5965 170.932 98.3191C170.932 97.0417 171.845 96.0062 172.971 96.0062C174.097 96.0062 175.009 97.0417 175.009 98.3191ZM146.466 121.444L151.047 121.448C151.052 117.991 154.305 115.827 158.71 115.819C163.114 115.811 166.351 117.963 166.351 121.446H170.932C170.932 115.809 165.481 112.185 158.7 112.196C151.93 112.208 146.475 115.838 146.466 121.444Z" fill="url(#paint4_linear_630:43931)"/>
</g>
<g filter="url(#filter9_d_630:43931)">
<path d="M157.189 50.0789C153.929 49.7208 151.583 48.5928 150.15 46.6949C148.717 44.797 148 41.9859 148 38.2617V36.8114H157.136V37.8857C157.136 40.6072 157.942 41.968 159.554 41.968C160.27 41.968 160.808 41.6994 161.166 41.1623C161.56 40.5893 161.757 39.891 161.757 39.0674C161.757 38.4587 161.22 37.5634 160.145 36.3817L152.621 28.7543C149.827 26.0328 148.43 23.0427 148.43 19.784C148.43 17.2415 149.254 15.1288 150.902 13.4457C152.586 11.7269 154.681 10.6347 157.189 10.1691V7H161.703V10.1154C164.677 10.4735 166.934 11.691 168.474 13.768C170.051 15.845 170.839 18.6023 170.839 22.04H161.488L161.435 19.8377C161.399 19.3722 161.166 18.9604 160.736 18.6023C160.306 18.2084 159.822 18.0114 159.285 18.0114C158.676 18.0114 158.157 18.2084 157.727 18.6023C157.297 18.9604 157.082 19.4438 157.082 20.0526C157.082 20.912 157.942 22.2011 159.661 23.92L167.023 31.1714C168.206 32.3173 169.155 33.6602 169.871 35.2C170.624 36.7398 171 38.405 171 40.1954C171 43.0244 170.14 45.3162 168.421 47.0709C166.701 48.7897 164.462 49.8103 161.703 50.1326V54H157.189V50.0789Z" fill="#EF6A6E"/>
</g>
<g filter="url(#filter10_d_630:43931)">
<path fill-rule="evenodd" clip-rule="evenodd" d="M299 69.7935C299 63.8571 303.404 59 308.786 59H362.611C367.994 59 372.398 63.8571 372.398 69.7935V145.348C372.398 151.284 367.994 156.141 362.611 156.141H308.786C303.404 156.141 299 151.284 299 145.348V69.7935ZM321.427 100.632C322.553 100.632 323.466 99.5965 323.466 98.3191C323.466 97.0417 322.553 96.0062 321.427 96.0062C320.301 96.0062 319.388 97.0417 319.388 98.3191C319.388 99.5965 320.301 100.632 321.427 100.632ZM352.009 98.3191C352.009 99.5965 351.097 100.632 349.971 100.632C348.845 100.632 347.932 99.5965 347.932 98.3191C347.932 97.0417 348.845 96.0062 349.971 96.0062C351.097 96.0062 352.009 97.0417 352.009 98.3191ZM323.466 121.444L328.047 121.448C328.052 117.991 331.305 115.827 335.71 115.819C340.114 115.811 343.351 117.963 343.351 121.446H347.932C347.932 115.809 342.481 112.185 335.7 112.196C328.93 112.208 323.475 115.838 323.466 121.444Z" fill="url(#paint5_linear_630:43931)"/>
</g>
<g filter="url(#filter11_d_630:43931)">
<path d="M334.189 50.0789C330.929 49.7208 328.583 48.5928 327.15 46.6949C325.717 44.797 325 41.9859 325 38.2617V36.8114H334.136V37.8857C334.136 40.6072 334.942 41.968 336.554 41.968C337.27 41.968 337.808 41.6994 338.166 41.1623C338.56 40.5893 338.757 39.891 338.757 39.0674C338.757 38.4587 338.22 37.5634 337.145 36.3817L329.621 28.7543C326.827 26.0328 325.43 23.0427 325.43 19.784C325.43 17.2415 326.254 15.1288 327.902 13.4457C329.586 11.7269 331.681 10.6347 334.189 10.1691V7H338.703V10.1154C341.677 10.4735 343.934 11.691 345.474 13.768C347.051 15.845 347.839 18.6023 347.839 22.04H338.488L338.435 19.8377C338.399 19.3722 338.166 18.9604 337.736 18.6023C337.306 18.2084 336.822 18.0114 336.285 18.0114C335.676 18.0114 335.157 18.2084 334.727 18.6023C334.297 18.9604 334.082 19.4438 334.082 20.0526C334.082 20.912 334.942 22.2011 336.661 23.92L344.023 31.1714C345.206 32.3173 346.155 33.6602 346.871 35.2C347.624 36.7398 348 38.405 348 40.1954C348 43.0244 347.14 45.3162 345.421 47.0709C343.701 48.7897 341.462 49.8103 338.703 50.1326V54H334.189V50.0789Z" fill="#EF6A6E"/>
</g>
<g filter="url(#filter12_d_630:43931)">
<path fill-rule="evenodd" clip-rule="evenodd" d="M93 90.7935C93 84.8571 97.4039 80 102.786 80H156.611C161.994 80 166.398 84.8571 166.398 90.7935V166.348C166.398 172.284 161.994 177.141 156.611 177.141H102.786C97.4039 177.141 93 172.284 93 166.348V90.7935ZM115.427 121.632C116.553 121.632 117.466 120.596 117.466 119.319C117.466 118.042 116.553 117.006 115.427 117.006C114.301 117.006 113.388 118.042 113.388 119.319C113.388 120.596 114.301 121.632 115.427 121.632ZM146.009 119.319C146.009 120.596 145.097 121.632 143.971 121.632C142.845 121.632 141.932 120.596 141.932 119.319C141.932 118.042 142.845 117.006 143.971 117.006C145.097 117.006 146.009 118.042 146.009 119.319ZM117.466 142.444L122.047 142.448C122.052 138.991 125.305 136.827 129.71 136.819C134.114 136.811 137.351 138.963 137.351 142.446H141.932C141.932 136.809 136.481 133.185 129.7 133.196C122.93 133.208 117.475 136.838 117.466 142.444Z" fill="url(#paint6_linear_630:43931)"/>
</g>
<g filter="url(#filter13_d_630:43931)">
<path d="M128.189 71.0789C124.929 70.7208 122.583 69.5928 121.15 67.6949C119.717 65.797 119 62.9859 119 59.2617V57.8114H128.136V58.8857C128.136 61.6072 128.942 62.968 130.554 62.968C131.27 62.968 131.808 62.6994 132.166 62.1623C132.56 61.5893 132.757 60.891 132.757 60.0674C132.757 59.4587 132.22 58.5634 131.145 57.3817L123.621 49.7543C120.827 47.0328 119.43 44.0427 119.43 40.784C119.43 38.2415 120.254 36.1288 121.902 34.4457C123.586 32.7269 125.681 31.6347 128.189 31.1691V28H132.703V31.1154C135.677 31.4735 137.934 32.691 139.474 34.768C141.051 36.845 141.839 39.6023 141.839 43.04H132.488L132.435 40.8377C132.399 40.3722 132.166 39.9604 131.736 39.6023C131.306 39.2084 130.822 39.0114 130.285 39.0114C129.676 39.0114 129.157 39.2084 128.727 39.6023C128.297 39.9604 128.082 40.4438 128.082 41.0526C128.082 41.912 128.942 43.2011 130.661 44.92L138.023 52.1714C139.206 53.3173 140.155 54.6602 140.871 56.2C141.624 57.7398 142 59.405 142 61.1954C142 64.0244 141.14 66.3162 139.421 68.0709C137.701 69.7897 135.462 70.8103 132.703 71.1326V75H128.189V71.0789Z" fill="#EF6A6E"/>
</g>
<g filter="url(#filter14_d_630:43931)">
<path fill-rule="evenodd" clip-rule="evenodd" d="M270 90.7935C270 84.8571 274.404 80 279.786 80H333.611C338.994 80 343.398 84.8571 343.398 90.7935V166.348C343.398 172.284 338.994 177.141 333.611 177.141H279.786C274.404 177.141 270 172.284 270 166.348V90.7935ZM292.427 121.632C293.553 121.632 294.466 120.596 294.466 119.319C294.466 118.042 293.553 117.006 292.427 117.006C291.301 117.006 290.388 118.042 290.388 119.319C290.388 120.596 291.301 121.632 292.427 121.632ZM323.009 119.319C323.009 120.596 322.097 121.632 320.971 121.632C319.845 121.632 318.932 120.596 318.932 119.319C318.932 118.042 319.845 117.006 320.971 117.006C322.097 117.006 323.009 118.042 323.009 119.319ZM294.466 142.444L299.047 142.448C299.052 138.991 302.305 136.827 306.71 136.819C311.114 136.811 314.351 138.963 314.351 142.446H318.932C318.932 136.809 313.481 133.185 306.7 133.196C299.93 133.208 294.475 136.838 294.466 142.444Z" fill="url(#paint7_linear_630:43931)"/>
</g>
<g filter="url(#filter15_d_630:43931)">
<path d="M305.189 71.0789C301.929 70.7208 299.583 69.5928 298.15 67.6949C296.717 65.797 296 62.9859 296 59.2617V57.8114H305.136V58.8857C305.136 61.6072 305.942 62.968 307.554 62.968C308.27 62.968 308.808 62.6994 309.166 62.1623C309.56 61.5893 309.757 60.891 309.757 60.0674C309.757 59.4587 309.22 58.5634 308.145 57.3817L300.621 49.7543C297.827 47.0328 296.43 44.0427 296.43 40.784C296.43 38.2415 297.254 36.1288 298.902 34.4457C300.586 32.7269 302.681 31.6347 305.189 31.1691V28H309.703V31.1154C312.677 31.4735 314.934 32.691 316.474 34.768C318.051 36.845 318.839 39.6023 318.839 43.04H309.488L309.435 40.8377C309.399 40.3722 309.166 39.9604 308.736 39.6023C308.306 39.2084 307.822 39.0114 307.285 39.0114C306.676 39.0114 306.157 39.2084 305.727 39.6023C305.297 39.9604 305.082 40.4438 305.082 41.0526C305.082 41.912 305.942 43.2011 307.661 44.92L315.023 52.1714C316.206 53.3173 317.155 54.6602 317.871 56.2C318.624 57.7398 319 59.405 319 61.1954C319 64.0244 318.14 66.3162 316.421 68.0709C314.701 69.7897 312.462 70.8103 309.703 71.1326V75H305.189V71.0789Z" fill="#EF6A6E"/>
</g>
<g filter="url(#filter16_d_630:43931)">
<path fill-rule="evenodd" clip-rule="evenodd" d="M130 121.793C130 115.857 134.404 111 139.786 111H193.611C198.994 111 203.398 115.857 203.398 121.793V197.348C203.398 203.284 198.994 208.141 193.611 208.141H139.786C134.404 208.141 130 203.284 130 197.348V121.793ZM152.427 152.632C153.553 152.632 154.466 151.596 154.466 150.319C154.466 149.042 153.553 148.006 152.427 148.006C151.301 148.006 150.388 149.042 150.388 150.319C150.388 151.596 151.301 152.632 152.427 152.632ZM183.009 150.319C183.009 151.596 182.097 152.632 180.971 152.632C179.845 152.632 178.932 151.596 178.932 150.319C178.932 149.042 179.845 148.006 180.971 148.006C182.097 148.006 183.009 149.042 183.009 150.319ZM154.466 173.444L159.047 173.448C159.052 169.991 162.305 167.827 166.71 167.819C171.114 167.811 174.351 169.963 174.351 173.446H178.932C178.932 167.809 173.481 164.185 166.7 164.196C159.93 164.208 154.475 167.838 154.466 173.444Z" fill="url(#paint8_linear_630:43931)"/>
</g>
<g filter="url(#filter17_d_630:43931)">
<path d="M165.189 102.079C161.929 101.721 159.583 100.593 158.15 98.6949C156.717 96.797 156 93.9859 156 90.2617V88.8114H165.136V89.8857C165.136 92.6072 165.942 93.968 167.554 93.968C168.27 93.968 168.808 93.6994 169.166 93.1623C169.56 92.5893 169.757 91.891 169.757 91.0674C169.757 90.4587 169.22 89.5634 168.145 88.3817L160.621 80.7543C157.827 78.0328 156.43 75.0427 156.43 71.784C156.43 69.2415 157.254 67.1288 158.902 65.4457C160.586 63.7269 162.681 62.6347 165.189 62.1691V59H169.703V62.1154C172.677 62.4735 174.934 63.691 176.474 65.768C178.051 67.845 178.839 70.6023 178.839 74.04H169.488L169.435 71.8377C169.399 71.3722 169.166 70.9604 168.736 70.6023C168.306 70.2084 167.822 70.0114 167.285 70.0114C166.676 70.0114 166.157 70.2084 165.727 70.6023C165.297 70.9604 165.082 71.4438 165.082 72.0526C165.082 72.912 165.942 74.2011 167.661 75.92L175.023 83.1714C176.206 84.3173 177.155 85.6602 177.871 87.2C178.624 88.7398 179 90.405 179 92.1954C179 95.0244 178.14 97.3162 176.421 99.0709C174.701 100.79 172.462 101.81 169.703 102.133V106H165.189V102.079Z" fill="#EF6A6E"/>
</g>
<g filter="url(#filter18_d_630:43931)">
<path fill-rule="evenodd" clip-rule="evenodd" d="M307 121.793C307 115.857 311.404 111 316.786 111H370.611C375.994 111 380.398 115.857 380.398 121.793V197.348C380.398 203.284 375.994 208.141 370.611 208.141H316.786C311.404 208.141 307 203.284 307 197.348V121.793ZM329.427 152.632C330.553 152.632 331.466 151.596 331.466 150.319C331.466 149.042 330.553 148.006 329.427 148.006C328.301 148.006 327.388 149.042 327.388 150.319C327.388 151.596 328.301 152.632 329.427 152.632ZM360.009 150.319C360.009 151.596 359.097 152.632 357.971 152.632C356.845 152.632 355.932 151.596 355.932 150.319C355.932 149.042 356.845 148.006 357.971 148.006C359.097 148.006 360.009 149.042 360.009 150.319ZM331.466 173.444L336.047 173.448C336.052 169.991 339.305 167.827 343.71 167.819C348.114 167.811 351.351 169.963 351.351 173.446H355.932C355.932 167.809 350.481 164.185 343.7 164.196C336.93 164.208 331.475 167.838 331.466 173.444Z" fill="url(#paint9_linear_630:43931)"/>
</g>
<g filter="url(#filter19_d_630:43931)">
<path d="M342.189 102.079C338.929 101.721 336.583 100.593 335.15 98.6949C333.717 96.797 333 93.9859 333 90.2617V88.8114H342.136V89.8857C342.136 92.6072 342.942 93.968 344.554 93.968C345.27 93.968 345.808 93.6994 346.166 93.1623C346.56 92.5893 346.757 91.891 346.757 91.0674C346.757 90.4587 346.22 89.5634 345.145 88.3817L337.621 80.7543C334.827 78.0328 333.43 75.0427 333.43 71.784C333.43 69.2415 334.254 67.1288 335.902 65.4457C337.586 63.7269 339.681 62.6347 342.189 62.1691V59H346.703V62.1154C349.677 62.4735 351.934 63.691 353.474 65.768C355.051 67.845 355.839 70.6023 355.839 74.04H346.488L346.435 71.8377C346.399 71.3722 346.166 70.9604 345.736 70.6023C345.306 70.2084 344.822 70.0114 344.285 70.0114C343.676 70.0114 343.157 70.2084 342.727 70.6023C342.297 70.9604 342.082 71.4438 342.082 72.0526C342.082 72.912 342.942 74.2011 344.661 75.92L352.023 83.1714C353.206 84.3173 354.155 85.6602 354.871 87.2C355.624 88.7398 356 90.405 356 92.1954C356 95.0244 355.14 97.3162 353.421 99.0709C351.701 100.79 349.462 101.81 346.703 102.133V106H342.189V102.079Z" fill="#EF6A6E"/>
</g>
<g filter="url(#filter20_d_630:43931)">
<path fill-rule="evenodd" clip-rule="evenodd" d="M93 152.793C93 146.857 97.4039 142 102.786 142H156.611C161.994 142 166.398 146.857 166.398 152.793V228.348C166.398 234.284 161.994 239.141 156.611 239.141H102.786C97.4039 239.141 93 234.284 93 228.348V152.793ZM115.427 183.632C116.553 183.632 117.466 182.596 117.466 181.319C117.466 180.042 116.553 179.006 115.427 179.006C114.301 179.006 113.388 180.042 113.388 181.319C113.388 182.596 114.301 183.632 115.427 183.632ZM146.009 181.319C146.009 182.596 145.097 183.632 143.971 183.632C142.845 183.632 141.932 182.596 141.932 181.319C141.932 180.042 142.845 179.006 143.971 179.006C145.097 179.006 146.009 180.042 146.009 181.319ZM117.466 204.444L122.047 204.448C122.052 200.991 125.305 198.827 129.71 198.819C134.114 198.811 137.351 200.963 137.351 204.446H141.932C141.932 198.809 136.481 195.185 129.7 195.196C122.93 195.208 117.475 198.838 117.466 204.444Z" fill="url(#paint10_linear_630:43931)"/>
</g>
<g filter="url(#filter21_d_630:43931)">
<path d="M128.189 133.079C124.929 132.721 122.583 131.593 121.15 129.695C119.717 127.797 119 124.986 119 121.262V119.811H128.136V120.886C128.136 123.607 128.942 124.968 130.554 124.968C131.27 124.968 131.808 124.699 132.166 124.162C132.56 123.589 132.757 122.891 132.757 122.067C132.757 121.459 132.22 120.563 131.145 119.382L123.621 111.754C120.827 109.033 119.43 106.043 119.43 102.784C119.43 100.242 120.254 98.1288 121.902 96.4457C123.586 94.7269 125.681 93.6347 128.189 93.1691V90H132.703V93.1154C135.677 93.4735 137.934 94.691 139.474 96.768C141.051 98.845 141.839 101.602 141.839 105.04H132.488L132.435 102.838C132.399 102.372 132.166 101.96 131.736 101.602C131.306 101.208 130.822 101.011 130.285 101.011C129.676 101.011 129.157 101.208 128.727 101.602C128.297 101.96 128.082 102.444 128.082 103.053C128.082 103.912 128.942 105.201 130.661 106.92L138.023 114.171C139.206 115.317 140.155 116.66 140.871 118.2C141.624 119.74 142 121.405 142 123.195C142 126.024 141.14 128.316 139.421 130.071C137.701 131.79 135.462 132.81 132.703 133.133V137H128.189V133.079Z" fill="#EF6A6E"/>
</g>
<g filter="url(#filter22_d_630:43931)">
<path fill-rule="evenodd" clip-rule="evenodd" d="M270 152.793C270 146.857 274.404 142 279.786 142H333.611C338.994 142 343.398 146.857 343.398 152.793V228.348C343.398 234.284 338.994 239.141 333.611 239.141H279.786C274.404 239.141 270 234.284 270 228.348V152.793ZM292.427 183.632C293.553 183.632 294.466 182.596 294.466 181.319C294.466 180.042 293.553 179.006 292.427 179.006C291.301 179.006 290.388 180.042 290.388 181.319C290.388 182.596 291.301 183.632 292.427 183.632ZM323.009 181.319C323.009 182.596 322.097 183.632 320.971 183.632C319.845 183.632 318.932 182.596 318.932 181.319C318.932 180.042 319.845 179.006 320.971 179.006C322.097 179.006 323.009 180.042 323.009 181.319ZM294.466 204.444L299.047 204.448C299.052 200.991 302.305 198.827 306.71 198.819C311.114 198.811 314.351 200.963 314.351 204.446H318.932C318.932 198.809 313.481 195.185 306.7 195.196C299.93 195.208 294.475 198.838 294.466 204.444Z" fill="url(#paint11_linear_630:43931)"/>
</g>
<g filter="url(#filter23_d_630:43931)">
<path d="M305.189 133.079C301.929 132.721 299.583 131.593 298.15 129.695C296.717 127.797 296 124.986 296 121.262V119.811H305.136V120.886C305.136 123.607 305.942 124.968 307.554 124.968C308.27 124.968 308.808 124.699 309.166 124.162C309.56 123.589 309.757 122.891 309.757 122.067C309.757 121.459 309.22 120.563 308.145 119.382L300.621 111.754C297.827 109.033 296.43 106.043 296.43 102.784C296.43 100.242 297.254 98.1288 298.902 96.4457C300.586 94.7269 302.681 93.6347 305.189 93.1691V90H309.703V93.1154C312.677 93.4735 314.934 94.691 316.474 96.768C318.051 98.845 318.839 101.602 318.839 105.04H309.488L309.435 102.838C309.399 102.372 309.166 101.96 308.736 101.602C308.306 101.208 307.822 101.011 307.285 101.011C306.676 101.011 306.157 101.208 305.727 101.602C305.297 101.96 305.082 102.444 305.082 103.053C305.082 103.912 305.942 105.201 307.661 106.92L315.023 114.171C316.206 115.317 317.155 116.66 317.871 118.2C318.624 119.74 319 121.405 319 123.195C319 126.024 318.14 128.316 316.421 130.071C314.701 131.79 312.462 132.81 309.703 133.133V137H305.189V133.079Z" fill="#EF6A6E"/>
</g>
<g filter="url(#filter24_d_630:43931)">
<path fill-rule="evenodd" clip-rule="evenodd" d="M213 69.7935C213 63.8571 217.404 59 222.786 59H276.611C281.994 59 286.398 63.8571 286.398 69.7935V145.348C286.398 151.284 281.994 156.141 276.611 156.141H222.786C217.404 156.141 213 151.284 213 145.348V69.7935ZM235.427 100.632C236.553 100.632 237.466 99.5965 237.466 98.3191C237.466 97.0417 236.553 96.0062 235.427 96.0062C234.301 96.0062 233.388 97.0417 233.388 98.3191C233.388 99.5965 234.301 100.632 235.427 100.632ZM266.009 98.3191C266.009 99.5965 265.097 100.632 263.971 100.632C262.845 100.632 261.932 99.5965 261.932 98.3191C261.932 97.0417 262.845 96.0062 263.971 96.0062C265.097 96.0062 266.009 97.0417 266.009 98.3191ZM237.466 121.444L242.047 121.448C242.052 117.991 245.305 115.827 249.71 115.819C254.114 115.811 257.351 117.963 257.351 121.446H261.932C261.932 115.809 256.481 112.185 249.7 112.196C242.93 112.208 237.475 115.838 237.466 121.444Z" fill="url(#paint12_linear_630:43931)"/>
</g>
<g filter="url(#filter25_d_630:43931)">
<path d="M248.189 50.0789C244.929 49.7208 242.583 48.5928 241.15 46.6949C239.717 44.797 239 41.9859 239 38.2617V36.8114H248.136V37.8857C248.136 40.6072 248.942 41.968 250.554 41.968C251.27 41.968 251.808 41.6994 252.166 41.1623C252.56 40.5893 252.757 39.891 252.757 39.0674C252.757 38.4587 252.22 37.5634 251.145 36.3817L243.621 28.7543C240.827 26.0328 239.43 23.0427 239.43 19.784C239.43 17.2415 240.254 15.1288 241.902 13.4457C243.586 11.7269 245.681 10.6347 248.189 10.1691V7H252.703V10.1154C255.677 10.4735 257.934 11.691 259.474 13.768C261.051 15.845 261.839 18.6023 261.839 22.04H252.488L252.435 19.8377C252.399 19.3722 252.166 18.9604 251.736 18.6023C251.306 18.2084 250.822 18.0114 250.285 18.0114C249.676 18.0114 249.157 18.2084 248.727 18.6023C248.297 18.9604 248.082 19.4438 248.082 20.0526C248.082 20.912 248.942 22.2011 250.661 23.92L258.023 31.1714C259.206 32.3173 260.155 33.6602 260.871 35.2C261.624 36.7398 262 38.405 262 40.1954C262 43.0244 261.14 45.3162 259.421 47.0709C257.701 48.7897 255.462 49.8103 252.703 50.1326V54H248.189V50.0789Z" fill="#EF6A6E"/>
</g>
<g filter="url(#filter26_d_630:43931)">
<path fill-rule="evenodd" clip-rule="evenodd" d="M184 90.7935C184 84.8571 188.404 80 193.786 80H247.611C252.994 80 257.398 84.8571 257.398 90.7935V166.348C257.398 172.284 252.994 177.141 247.611 177.141H193.786C188.404 177.141 184 172.284 184 166.348V90.7935ZM206.427 121.632C207.553 121.632 208.466 120.596 208.466 119.319C208.466 118.042 207.553 117.006 206.427 117.006C205.301 117.006 204.388 118.042 204.388 119.319C204.388 120.596 205.301 121.632 206.427 121.632ZM237.009 119.319C237.009 120.596 236.097 121.632 234.971 121.632C233.845 121.632 232.932 120.596 232.932 119.319C232.932 118.042 233.845 117.006 234.971 117.006C236.097 117.006 237.009 118.042 237.009 119.319ZM208.466 142.444L213.047 142.448C213.052 138.991 216.305 136.827 220.71 136.819C225.114 136.811 228.351 138.963 228.351 142.446H232.932C232.932 136.809 227.481 133.185 220.7 133.196C213.93 133.208 208.475 136.838 208.466 142.444Z" fill="url(#paint13_linear_630:43931)"/>
</g>
<g filter="url(#filter27_d_630:43931)">
<path d="M219.189 71.0789C215.929 70.7208 213.583 69.5928 212.15 67.6949C210.717 65.797 210 62.9859 210 59.2617V57.8114H219.136V58.8857C219.136 61.6072 219.942 62.968 221.554 62.968C222.27 62.968 222.808 62.6994 223.166 62.1623C223.56 61.5893 223.757 60.891 223.757 60.0674C223.757 59.4587 223.22 58.5634 222.145 57.3817L214.621 49.7543C211.827 47.0328 210.43 44.0427 210.43 40.784C210.43 38.2415 211.254 36.1288 212.902 34.4457C214.586 32.7269 216.681 31.6347 219.189 31.1691V28H223.703V31.1154C226.677 31.4735 228.934 32.691 230.474 34.768C232.051 36.845 232.839 39.6023 232.839 43.04H223.488L223.435 40.8377C223.399 40.3722 223.166 39.9604 222.736 39.6023C222.306 39.2084 221.822 39.0114 221.285 39.0114C220.676 39.0114 220.157 39.2084 219.727 39.6023C219.297 39.9604 219.082 40.4438 219.082 41.0526C219.082 41.912 219.942 43.2011 221.661 44.92L229.023 52.1714C230.206 53.3173 231.155 54.6602 231.871 56.2C232.624 57.7398 233 59.405 233 61.1954C233 64.0244 232.14 66.3162 230.421 68.0709C228.701 69.7897 226.462 70.8103 223.703 71.1326V75H219.189V71.0789Z" fill="#EF6A6E"/>
</g>
<g filter="url(#filter28_d_630:43931)">
<path fill-rule="evenodd" clip-rule="evenodd" d="M221 121.793C221 115.857 225.404 111 230.786 111H284.611C289.994 111 294.398 115.857 294.398 121.793V197.348C294.398 203.284 289.994 208.141 284.611 208.141H230.786C225.404 208.141 221 203.284 221 197.348V121.793ZM243.427 152.632C244.553 152.632 245.466 151.596 245.466 150.319C245.466 149.042 244.553 148.006 243.427 148.006C242.301 148.006 241.388 149.042 241.388 150.319C241.388 151.596 242.301 152.632 243.427 152.632ZM274.009 150.319C274.009 151.596 273.097 152.632 271.971 152.632C270.845 152.632 269.932 151.596 269.932 150.319C269.932 149.042 270.845 148.006 271.971 148.006C273.097 148.006 274.009 149.042 274.009 150.319ZM245.466 173.444L250.047 173.448C250.052 169.991 253.305 167.827 257.71 167.819C262.114 167.811 265.351 169.963 265.351 173.446H269.932C269.932 167.809 264.481 164.185 257.7 164.196C250.93 164.208 245.475 167.838 245.466 173.444Z" fill="url(#paint14_linear_630:43931)"/>
</g>
<g filter="url(#filter29_d_630:43931)">
<path d="M256.189 102.079C252.929 101.721 250.583 100.593 249.15 98.6949C247.717 96.797 247 93.9859 247 90.2617V88.8114H256.136V89.8857C256.136 92.6072 256.942 93.968 258.554 93.968C259.27 93.968 259.808 93.6994 260.166 93.1623C260.56 92.5893 260.757 91.891 260.757 91.0674C260.757 90.4587 260.22 89.5634 259.145 88.3817L251.621 80.7543C248.827 78.0328 247.43 75.0427 247.43 71.784C247.43 69.2415 248.254 67.1288 249.902 65.4457C251.586 63.7269 253.681 62.6347 256.189 62.1691V59H260.703V62.1154C263.677 62.4735 265.934 63.691 267.474 65.768C269.051 67.845 269.839 70.6023 269.839 74.04H260.488L260.435 71.8377C260.399 71.3722 260.166 70.9604 259.736 70.6023C259.306 70.2084 258.822 70.0114 258.285 70.0114C257.676 70.0114 257.157 70.2084 256.727 70.6023C256.297 70.9604 256.082 71.4438 256.082 72.0526C256.082 72.912 256.942 74.2011 258.661 75.92L266.023 83.1714C267.206 84.3173 268.155 85.6602 268.871 87.2C269.624 88.7398 270 90.405 270 92.1954C270 95.0244 269.14 97.3162 267.421 99.0709C265.701 100.79 263.462 101.81 260.703 102.133V106H256.189V102.079Z" fill="#EF6A6E"/>
</g>
<g filter="url(#filter30_d_630:43931)">
<path fill-rule="evenodd" clip-rule="evenodd" d="M184 152.793C184 146.857 188.404 142 193.786 142H247.611C252.994 142 257.398 146.857 257.398 152.793V228.348C257.398 234.284 252.994 239.141 247.611 239.141H193.786C188.404 239.141 184 234.284 184 228.348V152.793ZM206.427 183.632C207.553 183.632 208.466 182.596 208.466 181.319C208.466 180.042 207.553 179.006 206.427 179.006C205.301 179.006 204.388 180.042 204.388 181.319C204.388 182.596 205.301 183.632 206.427 183.632ZM237.009 181.319C237.009 182.596 236.097 183.632 234.971 183.632C233.845 183.632 232.932 182.596 232.932 181.319C232.932 180.042 233.845 179.006 234.971 179.006C236.097 179.006 237.009 180.042 237.009 181.319ZM208.466 204.444L213.047 204.448C213.052 200.991 216.305 198.827 220.71 198.819C225.114 198.811 228.351 200.963 228.351 204.446H232.932C232.932 198.809 227.481 195.185 220.7 195.196C213.93 195.208 208.475 198.838 208.466 204.444Z" fill="url(#paint15_linear_630:43931)"/>
</g>
<g filter="url(#filter31_d_630:43931)">
<path d="M219.189 133.079C215.929 132.721 213.583 131.593 212.15 129.695C210.717 127.797 210 124.986 210 121.262V119.811H219.136V120.886C219.136 123.607 219.942 124.968 221.554 124.968C222.27 124.968 222.808 124.699 223.166 124.162C223.56 123.589 223.757 122.891 223.757 122.067C223.757 121.459 223.22 120.563 222.145 119.382L214.621 111.754C211.827 109.033 210.43 106.043 210.43 102.784C210.43 100.242 211.254 98.1288 212.902 96.4457C214.586 94.7269 216.681 93.6347 219.189 93.1691V90H223.703V93.1154C226.677 93.4735 228.934 94.691 230.474 96.768C232.051 98.845 232.839 101.602 232.839 105.04H223.488L223.435 102.838C223.399 102.372 223.166 101.96 222.736 101.602C222.306 101.208 221.822 101.011 221.285 101.011C220.676 101.011 220.157 101.208 219.727 101.602C219.297 101.96 219.082 102.444 219.082 103.053C219.082 103.912 219.942 105.201 221.661 106.92L229.023 114.171C230.206 115.317 231.155 116.66 231.871 118.2C232.624 119.74 233 121.405 233 123.195C233 126.024 232.14 128.316 230.421 130.071C228.701 131.79 226.462 132.81 223.703 133.133V137H219.189V133.079Z" fill="#EF6A6E"/>
</g>
<g filter="url(#filter32_d_630:43931)">
<path fill-rule="evenodd" clip-rule="evenodd" d="M38 183.793C38 177.857 42.4039 173 47.7864 173H101.611C106.994 173 111.398 177.857 111.398 183.793V259.348C111.398 265.284 106.994 270.141 101.611 270.141H47.7864C42.4039 270.141 38 265.284 38 259.348V183.793ZM60.4271 214.632C61.5531 214.632 62.4659 213.596 62.4659 212.319C62.4659 211.042 61.5531 210.006 60.4271 210.006C59.3011 210.006 58.3883 211.042 58.3883 212.319C58.3883 213.596 59.3011 214.632 60.4271 214.632ZM91.0095 212.319C91.0095 213.596 90.0967 214.632 88.9707 214.632C87.8447 214.632 86.9318 213.596 86.9318 212.319C86.9318 211.042 87.8447 210.006 88.9707 210.006C90.0967 210.006 91.0095 211.042 91.0095 212.319ZM62.4659 235.444L67.047 235.448C67.0523 231.991 70.3054 229.827 74.7096 229.819C79.1145 229.811 82.3507 231.963 82.3507 235.446H86.9318C86.9318 229.809 81.4811 226.185 74.6996 226.196C67.9303 226.208 62.4745 229.838 62.4659 235.444Z" fill="url(#paint16_linear_630:43931)"/>
</g>
<g filter="url(#filter33_d_630:43931)">
<path d="M73.1893 164.079C69.9291 163.721 67.5826 162.593 66.1495 160.695C64.7165 158.797 64 155.986 64 152.262V150.811H73.1355V151.886C73.1355 154.607 73.9416 155.968 75.5537 155.968C76.2702 155.968 76.8076 155.699 77.1659 155.162C77.56 154.589 77.757 153.891 77.757 153.067C77.757 152.459 77.2196 151.563 76.1449 150.382L68.6215 142.754C65.8271 140.033 64.4299 137.043 64.4299 133.784C64.4299 131.242 65.2539 129.129 66.9019 127.446C68.5857 125.727 70.6815 124.635 73.1893 124.169V121H77.7033V124.115C80.6768 124.474 82.9338 125.691 84.4743 127.768C86.0506 129.845 86.8388 132.602 86.8388 136.04H77.4883L77.4346 133.838C77.3988 133.372 77.1659 132.96 76.736 132.602C76.3061 132.208 75.8224 132.011 75.285 132.011C74.676 132.011 74.1565 132.208 73.7266 132.602C73.2967 132.96 73.0818 133.444 73.0818 134.053C73.0818 134.912 73.9416 136.201 75.6612 137.92L83.0234 145.171C84.2056 146.317 85.155 147.66 85.8715 149.2C86.6238 150.74 87 152.405 87 154.195C87 157.024 86.1402 159.316 84.4206 161.071C82.7009 162.79 80.4618 163.81 77.7033 164.133V168H73.1893V164.079Z" fill="#EF6A6E"/>
</g>
<g filter="url(#filter34_d_630:43931)">
<path fill-rule="evenodd" clip-rule="evenodd" d="M124 183.793C124 177.857 128.404 173 133.786 173H187.611C192.994 173 197.398 177.857 197.398 183.793V259.348C197.398 265.284 192.994 270.141 187.611 270.141H133.786C128.404 270.141 124 265.284 124 259.348V183.793ZM146.427 214.632C147.553 214.632 148.466 213.596 148.466 212.319C148.466 211.042 147.553 210.006 146.427 210.006C145.301 210.006 144.388 211.042 144.388 212.319C144.388 213.596 145.301 214.632 146.427 214.632ZM177.009 212.319C177.009 213.596 176.097 214.632 174.971 214.632C173.845 214.632 172.932 213.596 172.932 212.319C172.932 211.042 173.845 210.006 174.971 210.006C176.097 210.006 177.009 211.042 177.009 212.319ZM148.466 235.444L153.047 235.448C153.052 231.991 156.305 229.827 160.71 229.819C165.114 229.811 168.351 231.963 168.351 235.446H172.932C172.932 229.809 167.481 226.185 160.7 226.196C153.93 226.208 148.475 229.838 148.466 235.444Z" fill="url(#paint17_linear_630:43931)"/>
</g>
<g filter="url(#filter35_d_630:43931)">
<path d="M159.189 164.079C155.929 163.721 153.583 162.593 152.15 160.695C150.717 158.797 150 155.986 150 152.262V150.811H159.136V151.886C159.136 154.607 159.942 155.968 161.554 155.968C162.27 155.968 162.808 155.699 163.166 155.162C163.56 154.589 163.757 153.891 163.757 153.067C163.757 152.459 163.22 151.563 162.145 150.382L154.621 142.754C151.827 140.033 150.43 137.043 150.43 133.784C150.43 131.242 151.254 129.129 152.902 127.446C154.586 125.727 156.681 124.635 159.189 124.169V121H163.703V124.115C166.677 124.474 168.934 125.691 170.474 127.768C172.051 129.845 172.839 132.602 172.839 136.04H163.488L163.435 133.838C163.399 133.372 163.166 132.96 162.736 132.602C162.306 132.208 161.822 132.011 161.285 132.011C160.676 132.011 160.157 132.208 159.727 132.602C159.297 132.96 159.082 133.444 159.082 134.053C159.082 134.912 159.942 136.201 161.661 137.92L169.023 145.171C170.206 146.317 171.155 147.66 171.871 149.2C172.624 150.74 173 152.405 173 154.195C173 157.024 172.14 159.316 170.421 161.071C168.701 162.79 166.462 163.81 163.703 164.133V168H159.189V164.079Z" fill="#EF6A6E"/>
</g>
<g filter="url(#filter36_d_630:43931)">
<path fill-rule="evenodd" clip-rule="evenodd" d="M301 183.793C301 177.857 305.404 173 310.786 173H364.611C369.994 173 374.398 177.857 374.398 183.793V259.348C374.398 265.284 369.994 270.141 364.611 270.141H310.786C305.404 270.141 301 265.284 301 259.348V183.793ZM323.427 214.632C324.553 214.632 325.466 213.596 325.466 212.319C325.466 211.042 324.553 210.006 323.427 210.006C322.301 210.006 321.388 211.042 321.388 212.319C321.388 213.596 322.301 214.632 323.427 214.632ZM354.009 212.319C354.009 213.596 353.097 214.632 351.971 214.632C350.845 214.632 349.932 213.596 349.932 212.319C349.932 211.042 350.845 210.006 351.971 210.006C353.097 210.006 354.009 211.042 354.009 212.319ZM325.466 235.444L330.047 235.448C330.052 231.991 333.305 229.827 337.71 229.819C342.114 229.811 345.351 231.963 345.351 235.446H349.932C349.932 229.809 344.481 226.185 337.7 226.196C330.93 226.208 325.475 229.838 325.466 235.444Z" fill="url(#paint18_linear_630:43931)"/>
</g>
<g filter="url(#filter37_d_630:43931)">
<path d="M336.189 164.079C332.929 163.721 330.583 162.593 329.15 160.695C327.717 158.797 327 155.986 327 152.262V150.811H336.136V151.886C336.136 154.607 336.942 155.968 338.554 155.968C339.27 155.968 339.808 155.699 340.166 155.162C340.56 154.589 340.757 153.891 340.757 153.067C340.757 152.459 340.22 151.563 339.145 150.382L331.621 142.754C328.827 140.033 327.43 137.043 327.43 133.784C327.43 131.242 328.254 129.129 329.902 127.446C331.586 125.727 333.681 124.635 336.189 124.169V121H340.703V124.115C343.677 124.474 345.934 125.691 347.474 127.768C349.051 129.845 349.839 132.602 349.839 136.04H340.488L340.435 133.838C340.399 133.372 340.166 132.96 339.736 132.602C339.306 132.208 338.822 132.011 338.285 132.011C337.676 132.011 337.157 132.208 336.727 132.602C336.297 132.96 336.082 133.444 336.082 134.053C336.082 134.912 336.942 136.201 338.661 137.92L346.023 145.171C347.206 146.317 348.155 147.66 348.871 149.2C349.624 150.74 350 152.405 350 154.195C350 157.024 349.14 159.316 347.421 161.071C345.701 162.79 343.462 163.81 340.703 164.133V168H336.189V164.079Z" fill="#EF6A6E"/>
</g>
<g filter="url(#filter38_d_630:43931)">
<path fill-rule="evenodd" clip-rule="evenodd" d="M215 183.793C215 177.857 219.404 173 224.786 173H278.611C283.994 173 288.398 177.857 288.398 183.793V259.348C288.398 265.284 283.994 270.141 278.611 270.141H224.786C219.404 270.141 215 265.284 215 259.348V183.793ZM237.427 214.632C238.553 214.632 239.466 213.596 239.466 212.319C239.466 211.042 238.553 210.006 237.427 210.006C236.301 210.006 235.388 211.042 235.388 212.319C235.388 213.596 236.301 214.632 237.427 214.632ZM268.009 212.319C268.009 213.596 267.097 214.632 265.971 214.632C264.845 214.632 263.932 213.596 263.932 212.319C263.932 211.042 264.845 210.006 265.971 210.006C267.097 210.006 268.009 211.042 268.009 212.319ZM239.466 235.444L244.047 235.448C244.052 231.991 247.305 229.827 251.71 229.819C256.114 229.811 259.351 231.963 259.351 235.446H263.932C263.932 229.809 258.481 226.185 251.7 226.196C244.93 226.208 239.475 229.838 239.466 235.444Z" fill="url(#paint19_linear_630:43931)"/>
</g>
<g filter="url(#filter39_d_630:43931)">
<path d="M250.189 164.079C246.929 163.721 244.583 162.593 243.15 160.695C241.717 158.797 241 155.986 241 152.262V150.811H250.136V151.886C250.136 154.607 250.942 155.968 252.554 155.968C253.27 155.968 253.808 155.699 254.166 155.162C254.56 154.589 254.757 153.891 254.757 153.067C254.757 152.459 254.22 151.563 253.145 150.382L245.621 142.754C242.827 140.033 241.43 137.043 241.43 133.784C241.43 131.242 242.254 129.129 243.902 127.446C245.586 125.727 247.681 124.635 250.189 124.169V121H254.703V124.115C257.677 124.474 259.934 125.691 261.474 127.768C263.051 129.845 263.839 132.602 263.839 136.04H254.488L254.435 133.838C254.399 133.372 254.166 132.96 253.736 132.602C253.306 132.208 252.822 132.011 252.285 132.011C251.676 132.011 251.157 132.208 250.727 132.602C250.297 132.96 250.082 133.444 250.082 134.053C250.082 134.912 250.942 136.201 252.661 137.92L260.023 145.171C261.206 146.317 262.155 147.66 262.871 149.2C263.624 150.74 264 152.405 264 154.195C264 157.024 263.14 159.316 261.421 161.071C259.701 162.79 257.462 163.81 254.703 164.133V168H250.189V164.079Z" fill="#EF6A6E"/>
</g>
<defs>
<filter id="filter0_d_630:43931" x="29" y="52" width="87.3977" height="111.141" filterUnits="userSpaceOnUse" color-interpolation-filters="sRGB">
<feFlood flood-opacity="0" result="BackgroundImageFix"/>
<feColorMatrix in="SourceAlpha" type="matrix" values="0 0 0 0 0 0 0 0 0 0 0 0 0 0 0 0 0 0 127 0" result="hardAlpha"/>
<feOffset/>
<feGaussianBlur stdDeviation="3.5"/>
<feColorMatrix type="matrix" values="0 0 0 0 0 0 0 0 0 0 0 0 0 0 0 0 0 0 0.4 0"/>
<feBlend mode="normal" in2="BackgroundImageFix" result="effect1_dropShadow_630:43931"/>
<feBlend mode="normal" in="SourceGraphic" in2="effect1_dropShadow_630:43931" result="shape"/>
</filter>
<filter id="filter1_d_630:43931" x="55" y="0" width="37" height="61" filterUnits="userSpaceOnUse" color-interpolation-filters="sRGB">
<feFlood flood-opacity="0" result="BackgroundImageFix"/>
<feColorMatrix in="SourceAlpha" type="matrix" values="0 0 0 0 0 0 0 0 0 0 0 0 0 0 0 0 0 0 127 0" result="hardAlpha"/>
<feOffset/>
<feGaussianBlur stdDeviation="3.5"/>
<feColorMatrix type="matrix" values="0 0 0 0 0 0 0 0 0 0 0 0 0 0 0 0 0 0 0.4 0"/>
<feBlend mode="normal" in2="BackgroundImageFix" result="effect1_dropShadow_630:43931"/>
<feBlend mode="normal" in="SourceGraphic" in2="effect1_dropShadow_630:43931" result="shape"/>
</filter>
<filter id="filter2_d_630:43931" x="0" y="73" width="87.3977" height="111.141" filterUnits="userSpaceOnUse" color-interpolation-filters="sRGB">
<feFlood flood-opacity="0" result="BackgroundImageFix"/>
<feColorMatrix in="SourceAlpha" type="matrix" values="0 0 0 0 0 0 0 0 0 0 0 0 0 0 0 0 0 0 127 0" result="hardAlpha"/>
<feOffset/>
<feGaussianBlur stdDeviation="3.5"/>
<feColorMatrix type="matrix" values="0 0 0 0 0 0 0 0 0 0 0 0 0 0 0 0 0 0 0.4 0"/>
<feBlend mode="normal" in2="BackgroundImageFix" result="effect1_dropShadow_630:43931"/>
<feBlend mode="normal" in="SourceGraphic" in2="effect1_dropShadow_630:43931" result="shape"/>
</filter>
<filter id="filter3_d_630:43931" x="26" y="21" width="37" height="61" filterUnits="userSpaceOnUse" color-interpolation-filters="sRGB">
<feFlood flood-opacity="0" result="BackgroundImageFix"/>
<feColorMatrix in="SourceAlpha" type="matrix" values="0 0 0 0 0 0 0 0 0 0 0 0 0 0 0 0 0 0 127 0" result="hardAlpha"/>
<feOffset/>
<feGaussianBlur stdDeviation="3.5"/>
<feColorMatrix type="matrix" values="0 0 0 0 0 0 0 0 0 0 0 0 0 0 0 0 0 0 0.4 0"/>
<feBlend mode="normal" in2="BackgroundImageFix" result="effect1_dropShadow_630:43931"/>
<feBlend mode="normal" in="SourceGraphic" in2="effect1_dropShadow_630:43931" result="shape"/>
</filter>
<filter id="filter4_d_630:43931" x="37" y="104" width="87.3977" height="111.141" filterUnits="userSpaceOnUse" color-interpolation-filters="sRGB">
<feFlood flood-opacity="0" result="BackgroundImageFix"/>
<feColorMatrix in="SourceAlpha" type="matrix" values="0 0 0 0 0 0 0 0 0 0 0 0 0 0 0 0 0 0 127 0" result="hardAlpha"/>
<feOffset/>
<feGaussianBlur stdDeviation="3.5"/>
<feColorMatrix type="matrix" values="0 0 0 0 0 0 0 0 0 0 0 0 0 0 0 0 0 0 0.4 0"/>
<feBlend mode="normal" in2="BackgroundImageFix" result="effect1_dropShadow_630:43931"/>
<feBlend mode="normal" in="SourceGraphic" in2="effect1_dropShadow_630:43931" result="shape"/>
</filter>
<filter id="filter5_d_630:43931" x="63" y="52" width="37" height="61" filterUnits="userSpaceOnUse" color-interpolation-filters="sRGB">
<feFlood flood-opacity="0" result="BackgroundImageFix"/>
<feColorMatrix in="SourceAlpha" type="matrix" values="0 0 0 0 0 0 0 0 0 0 0 0 0 0 0 0 0 0 127 0" result="hardAlpha"/>
<feOffset/>
<feGaussianBlur stdDeviation="3.5"/>
<feColorMatrix type="matrix" values="0 0 0 0 0 0 0 0 0 0 0 0 0 0 0 0 0 0 0.4 0"/>
<feBlend mode="normal" in2="BackgroundImageFix" result="effect1_dropShadow_630:43931"/>
<feBlend mode="normal" in="SourceGraphic" in2="effect1_dropShadow_630:43931" result="shape"/>
</filter>
<filter id="filter6_d_630:43931" x="0" y="135" width="87.3977" height="111.141" filterUnits="userSpaceOnUse" color-interpolation-filters="sRGB">
<feFlood flood-opacity="0" result="BackgroundImageFix"/>
<feColorMatrix in="SourceAlpha" type="matrix" values="0 0 0 0 0 0 0 0 0 0 0 0 0 0 0 0 0 0 127 0" result="hardAlpha"/>
<feOffset/>
<feGaussianBlur stdDeviation="3.5"/>
<feColorMatrix type="matrix" values="0 0 0 0 0 0 0 0 0 0 0 0 0 0 0 0 0 0 0.4 0"/>
<feBlend mode="normal" in2="BackgroundImageFix" result="effect1_dropShadow_630:43931"/>
<feBlend mode="normal" in="SourceGraphic" in2="effect1_dropShadow_630:43931" result="shape"/>
</filter>
<filter id="filter7_d_630:43931" x="26" y="83" width="37" height="61" filterUnits="userSpaceOnUse" color-interpolation-filters="sRGB">
<feFlood flood-opacity="0" result="BackgroundImageFix"/>
<feColorMatrix in="SourceAlpha" type="matrix" values="0 0 0 0 0 0 0 0 0 0 0 0 0 0 0 0 0 0 127 0" result="hardAlpha"/>
<feOffset/>
<feGaussianBlur stdDeviation="3.5"/>
<feColorMatrix type="matrix" values="0 0 0 0 0 0 0 0 0 0 0 0 0 0 0 0 0 0 0.4 0"/>
<feBlend mode="normal" in2="BackgroundImageFix" result="effect1_dropShadow_630:43931"/>
<feBlend mode="normal" in="SourceGraphic" in2="effect1_dropShadow_630:43931" result="shape"/>
</filter>
<filter id="filter8_d_630:43931" x="115" y="52" width="87.3977" height="111.141" filterUnits="userSpaceOnUse" color-interpolation-filters="sRGB">
<feFlood flood-opacity="0" result="BackgroundImageFix"/>
<feColorMatrix in="SourceAlpha" type="matrix" values="0 0 0 0 0 0 0 0 0 0 0 0 0 0 0 0 0 0 127 0" result="hardAlpha"/>
<feOffset/>
<feGaussianBlur stdDeviation="3.5"/>
<feColorMatrix type="matrix" values="0 0 0 0 0 0 0 0 0 0 0 0 0 0 0 0 0 0 0.4 0"/>
<feBlend mode="normal" in2="BackgroundImageFix" result="effect1_dropShadow_630:43931"/>
<feBlend mode="normal" in="SourceGraphic" in2="effect1_dropShadow_630:43931" result="shape"/>
</filter>
<filter id="filter9_d_630:43931" x="141" y="0" width="37" height="61" filterUnits="userSpaceOnUse" color-interpolation-filters="sRGB">
<feFlood flood-opacity="0" result="BackgroundImageFix"/>
<feColorMatrix in="SourceAlpha" type="matrix" values="0 0 0 0 0 0 0 0 0 0 0 0 0 0 0 0 0 0 127 0" result="hardAlpha"/>
<feOffset/>
<feGaussianBlur stdDeviation="3.5"/>
<feColorMatrix type="matrix" values="0 0 0 0 0 0 0 0 0 0 0 0 0 0 0 0 0 0 0.4 0"/>
<feBlend mode="normal" in2="BackgroundImageFix" result="effect1_dropShadow_630:43931"/>
<feBlend mode="normal" in="SourceGraphic" in2="effect1_dropShadow_630:43931" result="shape"/>
</filter>
<filter id="filter10_d_630:43931" x="292" y="52" width="87.3978" height="111.141" filterUnits="userSpaceOnUse" color-interpolation-filters="sRGB">
<feFlood flood-opacity="0" result="BackgroundImageFix"/>
<feColorMatrix in="SourceAlpha" type="matrix" values="0 0 0 0 0 0 0 0 0 0 0 0 0 0 0 0 0 0 127 0" result="hardAlpha"/>
<feOffset/>
<feGaussianBlur stdDeviation="3.5"/>
<feColorMatrix type="matrix" values="0 0 0 0 0 0 0 0 0 0 0 0 0 0 0 0 0 0 0.4 0"/>
<feBlend mode="normal" in2="BackgroundImageFix" result="effect1_dropShadow_630:43931"/>
<feBlend mode="normal" in="SourceGraphic" in2="effect1_dropShadow_630:43931" result="shape"/>
</filter>
<filter id="filter11_d_630:43931" x="318" y="0" width="37" height="61" filterUnits="userSpaceOnUse" color-interpolation-filters="sRGB">
<feFlood flood-opacity="0" result="BackgroundImageFix"/>
<feColorMatrix in="SourceAlpha" type="matrix" values="0 0 0 0 0 0 0 0 0 0 0 0 0 0 0 0 0 0 127 0" result="hardAlpha"/>
<feOffset/>
<feGaussianBlur stdDeviation="3.5"/>
<feColorMatrix type="matrix" values="0 0 0 0 0 0 0 0 0 0 0 0 0 0 0 0 0 0 0.4 0"/>
<feBlend mode="normal" in2="BackgroundImageFix" result="effect1_dropShadow_630:43931"/>
<feBlend mode="normal" in="SourceGraphic" in2="effect1_dropShadow_630:43931" result="shape"/>
</filter>
<filter id="filter12_d_630:43931" x="86" y="73" width="87.3977" height="111.141" filterUnits="userSpaceOnUse" color-interpolation-filters="sRGB">
<feFlood flood-opacity="0" result="BackgroundImageFix"/>
<feColorMatrix in="SourceAlpha" type="matrix" values="0 0 0 0 0 0 0 0 0 0 0 0 0 0 0 0 0 0 127 0" result="hardAlpha"/>
<feOffset/>
<feGaussianBlur stdDeviation="3.5"/>
<feColorMatrix type="matrix" values="0 0 0 0 0 0 0 0 0 0 0 0 0 0 0 0 0 0 0.4 0"/>
<feBlend mode="normal" in2="BackgroundImageFix" result="effect1_dropShadow_630:43931"/>
<feBlend mode="normal" in="SourceGraphic" in2="effect1_dropShadow_630:43931" result="shape"/>
</filter>
<filter id="filter13_d_630:43931" x="112" y="21" width="37" height="61" filterUnits="userSpaceOnUse" color-interpolation-filters="sRGB">
<feFlood flood-opacity="0" result="BackgroundImageFix"/>
<feColorMatrix in="SourceAlpha" type="matrix" values="0 0 0 0 0 0 0 0 0 0 0 0 0 0 0 0 0 0 127 0" result="hardAlpha"/>
<feOffset/>
<feGaussianBlur stdDeviation="3.5"/>
<feColorMatrix type="matrix" values="0 0 0 0 0 0 0 0 0 0 0 0 0 0 0 0 0 0 0.4 0"/>
<feBlend mode="normal" in2="BackgroundImageFix" result="effect1_dropShadow_630:43931"/>
<feBlend mode="normal" in="SourceGraphic" in2="effect1_dropShadow_630:43931" result="shape"/>
</filter>
<filter id="filter14_d_630:43931" x="263" y="73" width="87.3978" height="111.141" filterUnits="userSpaceOnUse" color-interpolation-filters="sRGB">
<feFlood flood-opacity="0" result="BackgroundImageFix"/>
<feColorMatrix in="SourceAlpha" type="matrix" values="0 0 0 0 0 0 0 0 0 0 0 0 0 0 0 0 0 0 127 0" result="hardAlpha"/>
<feOffset/>
<feGaussianBlur stdDeviation="3.5"/>
<feColorMatrix type="matrix" values="0 0 0 0 0 0 0 0 0 0 0 0 0 0 0 0 0 0 0.4 0"/>
<feBlend mode="normal" in2="BackgroundImageFix" result="effect1_dropShadow_630:43931"/>
<feBlend mode="normal" in="SourceGraphic" in2="effect1_dropShadow_630:43931" result="shape"/>
</filter>
<filter id="filter15_d_630:43931" x="289" y="21" width="37" height="61" filterUnits="userSpaceOnUse" color-interpolation-filters="sRGB">
<feFlood flood-opacity="0" result="BackgroundImageFix"/>
<feColorMatrix in="SourceAlpha" type="matrix" values="0 0 0 0 0 0 0 0 0 0 0 0 0 0 0 0 0 0 127 0" result="hardAlpha"/>
<feOffset/>
<feGaussianBlur stdDeviation="3.5"/>
<feColorMatrix type="matrix" values="0 0 0 0 0 0 0 0 0 0 0 0 0 0 0 0 0 0 0.4 0"/>
<feBlend mode="normal" in2="BackgroundImageFix" result="effect1_dropShadow_630:43931"/>
<feBlend mode="normal" in="SourceGraphic" in2="effect1_dropShadow_630:43931" result="shape"/>
</filter>
<filter id="filter16_d_630:43931" x="123" y="104" width="87.3977" height="111.141" filterUnits="userSpaceOnUse" color-interpolation-filters="sRGB">
<feFlood flood-opacity="0" result="BackgroundImageFix"/>
<feColorMatrix in="SourceAlpha" type="matrix" values="0 0 0 0 0 0 0 0 0 0 0 0 0 0 0 0 0 0 127 0" result="hardAlpha"/>
<feOffset/>
<feGaussianBlur stdDeviation="3.5"/>
<feColorMatrix type="matrix" values="0 0 0 0 0 0 0 0 0 0 0 0 0 0 0 0 0 0 0.4 0"/>
<feBlend mode="normal" in2="BackgroundImageFix" result="effect1_dropShadow_630:43931"/>
<feBlend mode="normal" in="SourceGraphic" in2="effect1_dropShadow_630:43931" result="shape"/>
</filter>
<filter id="filter17_d_630:43931" x="149" y="52" width="37" height="61" filterUnits="userSpaceOnUse" color-interpolation-filters="sRGB">
<feFlood flood-opacity="0" result="BackgroundImageFix"/>
<feColorMatrix in="SourceAlpha" type="matrix" values="0 0 0 0 0 0 0 0 0 0 0 0 0 0 0 0 0 0 127 0" result="hardAlpha"/>
<feOffset/>
<feGaussianBlur stdDeviation="3.5"/>
<feColorMatrix type="matrix" values="0 0 0 0 0 0 0 0 0 0 0 0 0 0 0 0 0 0 0.4 0"/>
<feBlend mode="normal" in2="BackgroundImageFix" result="effect1_dropShadow_630:43931"/>
<feBlend mode="normal" in="SourceGraphic" in2="effect1_dropShadow_630:43931" result="shape"/>
</filter>
<filter id="filter18_d_630:43931" x="300" y="104" width="87.3978" height="111.141" filterUnits="userSpaceOnUse" color-interpolation-filters="sRGB">
<feFlood flood-opacity="0" result="BackgroundImageFix"/>
<feColorMatrix in="SourceAlpha" type="matrix" values="0 0 0 0 0 0 0 0 0 0 0 0 0 0 0 0 0 0 127 0" result="hardAlpha"/>
<feOffset/>
<feGaussianBlur stdDeviation="3.5"/>
<feColorMatrix type="matrix" values="0 0 0 0 0 0 0 0 0 0 0 0 0 0 0 0 0 0 0.4 0"/>
<feBlend mode="normal" in2="BackgroundImageFix" result="effect1_dropShadow_630:43931"/>
<feBlend mode="normal" in="SourceGraphic" in2="effect1_dropShadow_630:43931" result="shape"/>
</filter>
<filter id="filter19_d_630:43931" x="326" y="52" width="37" height="61" filterUnits="userSpaceOnUse" color-interpolation-filters="sRGB">
<feFlood flood-opacity="0" result="BackgroundImageFix"/>
<feColorMatrix in="SourceAlpha" type="matrix" values="0 0 0 0 0 0 0 0 0 0 0 0 0 0 0 0 0 0 127 0" result="hardAlpha"/>
<feOffset/>
<feGaussianBlur stdDeviation="3.5"/>
<feColorMatrix type="matrix" values="0 0 0 0 0 0 0 0 0 0 0 0 0 0 0 0 0 0 0.4 0"/>
<feBlend mode="normal" in2="BackgroundImageFix" result="effect1_dropShadow_630:43931"/>
<feBlend mode="normal" in="SourceGraphic" in2="effect1_dropShadow_630:43931" result="shape"/>
</filter>
<filter id="filter20_d_630:43931" x="86" y="135" width="87.3977" height="111.141" filterUnits="userSpaceOnUse" color-interpolation-filters="sRGB">
<feFlood flood-opacity="0" result="BackgroundImageFix"/>
<feColorMatrix in="SourceAlpha" type="matrix" values="0 0 0 0 0 0 0 0 0 0 0 0 0 0 0 0 0 0 127 0" result="hardAlpha"/>
<feOffset/>
<feGaussianBlur stdDeviation="3.5"/>
<feColorMatrix type="matrix" values="0 0 0 0 0 0 0 0 0 0 0 0 0 0 0 0 0 0 0.4 0"/>
<feBlend mode="normal" in2="BackgroundImageFix" result="effect1_dropShadow_630:43931"/>
<feBlend mode="normal" in="SourceGraphic" in2="effect1_dropShadow_630:43931" result="shape"/>
</filter>
<filter id="filter21_d_630:43931" x="112" y="83" width="37" height="61" filterUnits="userSpaceOnUse" color-interpolation-filters="sRGB">
<feFlood flood-opacity="0" result="BackgroundImageFix"/>
<feColorMatrix in="SourceAlpha" type="matrix" values="0 0 0 0 0 0 0 0 0 0 0 0 0 0 0 0 0 0 127 0" result="hardAlpha"/>
<feOffset/>
<feGaussianBlur stdDeviation="3.5"/>
<feColorMatrix type="matrix" values="0 0 0 0 0 0 0 0 0 0 0 0 0 0 0 0 0 0 0.4 0"/>
<feBlend mode="normal" in2="BackgroundImageFix" result="effect1_dropShadow_630:43931"/>
<feBlend mode="normal" in="SourceGraphic" in2="effect1_dropShadow_630:43931" result="shape"/>
</filter>
<filter id="filter22_d_630:43931" x="263" y="135" width="87.3978" height="111.141" filterUnits="userSpaceOnUse" color-interpolation-filters="sRGB">
<feFlood flood-opacity="0" result="BackgroundImageFix"/>
<feColorMatrix in="SourceAlpha" type="matrix" values="0 0 0 0 0 0 0 0 0 0 0 0 0 0 0 0 0 0 127 0" result="hardAlpha"/>
<feOffset/>
<feGaussianBlur stdDeviation="3.5"/>
<feColorMatrix type="matrix" values="0 0 0 0 0 0 0 0 0 0 0 0 0 0 0 0 0 0 0.4 0"/>
<feBlend mode="normal" in2="BackgroundImageFix" result="effect1_dropShadow_630:43931"/>
<feBlend mode="normal" in="SourceGraphic" in2="effect1_dropShadow_630:43931" result="shape"/>
</filter>
<filter id="filter23_d_630:43931" x="289" y="83" width="37" height="61" filterUnits="userSpaceOnUse" color-interpolation-filters="sRGB">
<feFlood flood-opacity="0" result="BackgroundImageFix"/>
<feColorMatrix in="SourceAlpha" type="matrix" values="0 0 0 0 0 0 0 0 0 0 0 0 0 0 0 0 0 0 127 0" result="hardAlpha"/>
<feOffset/>
<feGaussianBlur stdDeviation="3.5"/>
<feColorMatrix type="matrix" values="0 0 0 0 0 0 0 0 0 0 0 0 0 0 0 0 0 0 0.4 0"/>
<feBlend mode="normal" in2="BackgroundImageFix" result="effect1_dropShadow_630:43931"/>
<feBlend mode="normal" in="SourceGraphic" in2="effect1_dropShadow_630:43931" result="shape"/>
</filter>
<filter id="filter24_d_630:43931" x="206" y="52" width="87.3977" height="111.141" filterUnits="userSpaceOnUse" color-interpolation-filters="sRGB">
<feFlood flood-opacity="0" result="BackgroundImageFix"/>
<feColorMatrix in="SourceAlpha" type="matrix" values="0 0 0 0 0 0 0 0 0 0 0 0 0 0 0 0 0 0 127 0" result="hardAlpha"/>
<feOffset/>
<feGaussianBlur stdDeviation="3.5"/>
<feColorMatrix type="matrix" values="0 0 0 0 0 0 0 0 0 0 0 0 0 0 0 0 0 0 0.4 0"/>
<feBlend mode="normal" in2="BackgroundImageFix" result="effect1_dropShadow_630:43931"/>
<feBlend mode="normal" in="SourceGraphic" in2="effect1_dropShadow_630:43931" result="shape"/>
</filter>
<filter id="filter25_d_630:43931" x="232" y="0" width="37" height="61" filterUnits="userSpaceOnUse" color-interpolation-filters="sRGB">
<feFlood flood-opacity="0" result="BackgroundImageFix"/>
<feColorMatrix in="SourceAlpha" type="matrix" values="0 0 0 0 0 0 0 0 0 0 0 0 0 0 0 0 0 0 127 0" result="hardAlpha"/>
<feOffset/>
<feGaussianBlur stdDeviation="3.5"/>
<feColorMatrix type="matrix" values="0 0 0 0 0 0 0 0 0 0 0 0 0 0 0 0 0 0 0.4 0"/>
<feBlend mode="normal" in2="BackgroundImageFix" result="effect1_dropShadow_630:43931"/>
<feBlend mode="normal" in="SourceGraphic" in2="effect1_dropShadow_630:43931" result="shape"/>
</filter>
<filter id="filter26_d_630:43931" x="177" y="73" width="87.3977" height="111.141" filterUnits="userSpaceOnUse" color-interpolation-filters="sRGB">
<feFlood flood-opacity="0" result="BackgroundImageFix"/>
<feColorMatrix in="SourceAlpha" type="matrix" values="0 0 0 0 0 0 0 0 0 0 0 0 0 0 0 0 0 0 127 0" result="hardAlpha"/>
<feOffset/>
<feGaussianBlur stdDeviation="3.5"/>
<feColorMatrix type="matrix" values="0 0 0 0 0 0 0 0 0 0 0 0 0 0 0 0 0 0 0.4 0"/>
<feBlend mode="normal" in2="BackgroundImageFix" result="effect1_dropShadow_630:43931"/>
<feBlend mode="normal" in="SourceGraphic" in2="effect1_dropShadow_630:43931" result="shape"/>
</filter>
<filter id="filter27_d_630:43931" x="203" y="21" width="37" height="61" filterUnits="userSpaceOnUse" color-interpolation-filters="sRGB">
<feFlood flood-opacity="0" result="BackgroundImageFix"/>
<feColorMatrix in="SourceAlpha" type="matrix" values="0 0 0 0 0 0 0 0 0 0 0 0 0 0 0 0 0 0 127 0" result="hardAlpha"/>
<feOffset/>
<feGaussianBlur stdDeviation="3.5"/>
<feColorMatrix type="matrix" values="0 0 0 0 0 0 0 0 0 0 0 0 0 0 0 0 0 0 0.4 0"/>
<feBlend mode="normal" in2="BackgroundImageFix" result="effect1_dropShadow_630:43931"/>
<feBlend mode="normal" in="SourceGraphic" in2="effect1_dropShadow_630:43931" result="shape"/>
</filter>
<filter id="filter28_d_630:43931" x="214" y="104" width="87.3977" height="111.141" filterUnits="userSpaceOnUse" color-interpolation-filters="sRGB">
<feFlood flood-opacity="0" result="BackgroundImageFix"/>
<feColorMatrix in="SourceAlpha" type="matrix" values="0 0 0 0 0 0 0 0 0 0 0 0 0 0 0 0 0 0 127 0" result="hardAlpha"/>
<feOffset/>
<feGaussianBlur stdDeviation="3.5"/>
<feColorMatrix type="matrix" values="0 0 0 0 0 0 0 0 0 0 0 0 0 0 0 0 0 0 0.4 0"/>
<feBlend mode="normal" in2="BackgroundImageFix" result="effect1_dropShadow_630:43931"/>
<feBlend mode="normal" in="SourceGraphic" in2="effect1_dropShadow_630:43931" result="shape"/>
</filter>
<filter id="filter29_d_630:43931" x="240" y="52" width="37" height="61" filterUnits="userSpaceOnUse" color-interpolation-filters="sRGB">
<feFlood flood-opacity="0" result="BackgroundImageFix"/>
<feColorMatrix in="SourceAlpha" type="matrix" values="0 0 0 0 0 0 0 0 0 0 0 0 0 0 0 0 0 0 127 0" result="hardAlpha"/>
<feOffset/>
<feGaussianBlur stdDeviation="3.5"/>
<feColorMatrix type="matrix" values="0 0 0 0 0 0 0 0 0 0 0 0 0 0 0 0 0 0 0.4 0"/>
<feBlend mode="normal" in2="BackgroundImageFix" result="effect1_dropShadow_630:43931"/>
<feBlend mode="normal" in="SourceGraphic" in2="effect1_dropShadow_630:43931" result="shape"/>
</filter>
<filter id="filter30_d_630:43931" x="177" y="135" width="87.3977" height="111.141" filterUnits="userSpaceOnUse" color-interpolation-filters="sRGB">
<feFlood flood-opacity="0" result="BackgroundImageFix"/>
<feColorMatrix in="SourceAlpha" type="matrix" values="0 0 0 0 0 0 0 0 0 0 0 0 0 0 0 0 0 0 127 0" result="hardAlpha"/>
<feOffset/>
<feGaussianBlur stdDeviation="3.5"/>
<feColorMatrix type="matrix" values="0 0 0 0 0 0 0 0 0 0 0 0 0 0 0 0 0 0 0.4 0"/>
<feBlend mode="normal" in2="BackgroundImageFix" result="effect1_dropShadow_630:43931"/>
<feBlend mode="normal" in="SourceGraphic" in2="effect1_dropShadow_630:43931" result="shape"/>
</filter>
<filter id="filter31_d_630:43931" x="203" y="83" width="37" height="61" filterUnits="userSpaceOnUse" color-interpolation-filters="sRGB">
<feFlood flood-opacity="0" result="BackgroundImageFix"/>
<feColorMatrix in="SourceAlpha" type="matrix" values="0 0 0 0 0 0 0 0 0 0 0 0 0 0 0 0 0 0 127 0" result="hardAlpha"/>
<feOffset/>
<feGaussianBlur stdDeviation="3.5"/>
<feColorMatrix type="matrix" values="0 0 0 0 0 0 0 0 0 0 0 0 0 0 0 0 0 0 0.4 0"/>
<feBlend mode="normal" in2="BackgroundImageFix" result="effect1_dropShadow_630:43931"/>
<feBlend mode="normal" in="SourceGraphic" in2="effect1_dropShadow_630:43931" result="shape"/>
</filter>
<filter id="filter32_d_630:43931" x="31" y="166" width="87.3977" height="111.141" filterUnits="userSpaceOnUse" color-interpolation-filters="sRGB">
<feFlood flood-opacity="0" result="BackgroundImageFix"/>
<feColorMatrix in="SourceAlpha" type="matrix" values="0 0 0 0 0 0 0 0 0 0 0 0 0 0 0 0 0 0 127 0" result="hardAlpha"/>
<feOffset/>
<feGaussianBlur stdDeviation="3.5"/>
<feColorMatrix type="matrix" values="0 0 0 0 0 0 0 0 0 0 0 0 0 0 0 0 0 0 0.4 0"/>
<feBlend mode="normal" in2="BackgroundImageFix" result="effect1_dropShadow_630:43931"/>
<feBlend mode="normal" in="SourceGraphic" in2="effect1_dropShadow_630:43931" result="shape"/>
</filter>
<filter id="filter33_d_630:43931" x="57" y="114" width="37" height="61" filterUnits="userSpaceOnUse" color-interpolation-filters="sRGB">
<feFlood flood-opacity="0" result="BackgroundImageFix"/>
<feColorMatrix in="SourceAlpha" type="matrix" values="0 0 0 0 0 0 0 0 0 0 0 0 0 0 0 0 0 0 127 0" result="hardAlpha"/>
<feOffset/>
<feGaussianBlur stdDeviation="3.5"/>
<feColorMatrix type="matrix" values="0 0 0 0 0 0 0 0 0 0 0 0 0 0 0 0 0 0 0.4 0"/>
<feBlend mode="normal" in2="BackgroundImageFix" result="effect1_dropShadow_630:43931"/>
<feBlend mode="normal" in="SourceGraphic" in2="effect1_dropShadow_630:43931" result="shape"/>
</filter>
<filter id="filter34_d_630:43931" x="117" y="166" width="87.3977" height="111.141" filterUnits="userSpaceOnUse" color-interpolation-filters="sRGB">
<feFlood flood-opacity="0" result="BackgroundImageFix"/>
<feColorMatrix in="SourceAlpha" type="matrix" values="0 0 0 0 0 0 0 0 0 0 0 0 0 0 0 0 0 0 127 0" result="hardAlpha"/>
<feOffset/>
<feGaussianBlur stdDeviation="3.5"/>
<feColorMatrix type="matrix" values="0 0 0 0 0 0 0 0 0 0 0 0 0 0 0 0 0 0 0.4 0"/>
<feBlend mode="normal" in2="BackgroundImageFix" result="effect1_dropShadow_630:43931"/>
<feBlend mode="normal" in="SourceGraphic" in2="effect1_dropShadow_630:43931" result="shape"/>
</filter>
<filter id="filter35_d_630:43931" x="143" y="114" width="37" height="61" filterUnits="userSpaceOnUse" color-interpolation-filters="sRGB">
<feFlood flood-opacity="0" result="BackgroundImageFix"/>
<feColorMatrix in="SourceAlpha" type="matrix" values="0 0 0 0 0 0 0 0 0 0 0 0 0 0 0 0 0 0 127 0" result="hardAlpha"/>
<feOffset/>
<feGaussianBlur stdDeviation="3.5"/>
<feColorMatrix type="matrix" values="0 0 0 0 0 0 0 0 0 0 0 0 0 0 0 0 0 0 0.4 0"/>
<feBlend mode="normal" in2="BackgroundImageFix" result="effect1_dropShadow_630:43931"/>
<feBlend mode="normal" in="SourceGraphic" in2="effect1_dropShadow_630:43931" result="shape"/>
</filter>
<filter id="filter36_d_630:43931" x="294" y="166" width="87.3978" height="111.141" filterUnits="userSpaceOnUse" color-interpolation-filters="sRGB">
<feFlood flood-opacity="0" result="BackgroundImageFix"/>
<feColorMatrix in="SourceAlpha" type="matrix" values="0 0 0 0 0 0 0 0 0 0 0 0 0 0 0 0 0 0 127 0" result="hardAlpha"/>
<feOffset/>
<feGaussianBlur stdDeviation="3.5"/>
<feColorMatrix type="matrix" values="0 0 0 0 0 0 0 0 0 0 0 0 0 0 0 0 0 0 0.4 0"/>
<feBlend mode="normal" in2="BackgroundImageFix" result="effect1_dropShadow_630:43931"/>
<feBlend mode="normal" in="SourceGraphic" in2="effect1_dropShadow_630:43931" result="shape"/>
</filter>
<filter id="filter37_d_630:43931" x="320" y="114" width="37" height="61" filterUnits="userSpaceOnUse" color-interpolation-filters="sRGB">
<feFlood flood-opacity="0" result="BackgroundImageFix"/>
<feColorMatrix in="SourceAlpha" type="matrix" values="0 0 0 0 0 0 0 0 0 0 0 0 0 0 0 0 0 0 127 0" result="hardAlpha"/>
<feOffset/>
<feGaussianBlur stdDeviation="3.5"/>
<feColorMatrix type="matrix" values="0 0 0 0 0 0 0 0 0 0 0 0 0 0 0 0 0 0 0.4 0"/>
<feBlend mode="normal" in2="BackgroundImageFix" result="effect1_dropShadow_630:43931"/>
<feBlend mode="normal" in="SourceGraphic" in2="effect1_dropShadow_630:43931" result="shape"/>
</filter>
<filter id="filter38_d_630:43931" x="208" y="166" width="87.3977" height="111.141" filterUnits="userSpaceOnUse" color-interpolation-filters="sRGB">
<feFlood flood-opacity="0" result="BackgroundImageFix"/>
<feColorMatrix in="SourceAlpha" type="matrix" values="0 0 0 0 0 0 0 0 0 0 0 0 0 0 0 0 0 0 127 0" result="hardAlpha"/>
<feOffset/>
<feGaussianBlur stdDeviation="3.5"/>
<feColorMatrix type="matrix" values="0 0 0 0 0 0 0 0 0 0 0 0 0 0 0 0 0 0 0.4 0"/>
<feBlend mode="normal" in2="BackgroundImageFix" result="effect1_dropShadow_630:43931"/>
<feBlend mode="normal" in="SourceGraphic" in2="effect1_dropShadow_630:43931" result="shape"/>
</filter>
<filter id="filter39_d_630:43931" x="234" y="114" width="37" height="61" filterUnits="userSpaceOnUse" color-interpolation-filters="sRGB">
<feFlood flood-opacity="0" result="BackgroundImageFix"/>
<feColorMatrix in="SourceAlpha" type="matrix" values="0 0 0 0 0 0 0 0 0 0 0 0 0 0 0 0 0 0 127 0" result="hardAlpha"/>
<feOffset/>
<feGaussianBlur stdDeviation="3.5"/>
<feColorMatrix type="matrix" values="0 0 0 0 0 0 0 0 0 0 0 0 0 0 0 0 0 0 0.4 0"/>
<feBlend mode="normal" in2="BackgroundImageFix" result="effect1_dropShadow_630:43931"/>
<feBlend mode="normal" in="SourceGraphic" in2="effect1_dropShadow_630:43931" result="shape"/>
</filter>
<linearGradient id="paint0_linear_630:43931" x1="36" y1="68.4576" x2="60.365" y2="163.003" gradientUnits="userSpaceOnUse">
<stop stop-color="#00AE8D"/>
<stop offset="1" stop-color="#039A7E"/>
</linearGradient>
<linearGradient id="paint1_linear_630:43931" x1="7" y1="89.4576" x2="31.365" y2="184.003" gradientUnits="userSpaceOnUse">
<stop stop-color="#00AE8D"/>
<stop offset="1" stop-color="#039A7E"/>
</linearGradient>
<linearGradient id="paint2_linear_630:43931" x1="44" y1="120.458" x2="68.365" y2="215.003" gradientUnits="userSpaceOnUse">
<stop stop-color="#00AE8D"/>
<stop offset="1" stop-color="#039A7E"/>
</linearGradient>
<linearGradient id="paint3_linear_630:43931" x1="7" y1="151.458" x2="31.365" y2="246.003" gradientUnits="userSpaceOnUse">
<stop stop-color="#00AE8D"/>
<stop offset="1" stop-color="#039A7E"/>
</linearGradient>
<linearGradient id="paint4_linear_630:43931" x1="122" y1="68.4576" x2="146.365" y2="163.003" gradientUnits="userSpaceOnUse">
<stop stop-color="#00AE8D"/>
<stop offset="1" stop-color="#039A7E"/>
</linearGradient>
<linearGradient id="paint5_linear_630:43931" x1="299" y1="68.4576" x2="323.365" y2="163.003" gradientUnits="userSpaceOnUse">
<stop stop-color="#00AE8D"/>
<stop offset="1" stop-color="#039A7E"/>
</linearGradient>
<linearGradient id="paint6_linear_630:43931" x1="93" y1="89.4576" x2="117.365" y2="184.003" gradientUnits="userSpaceOnUse">
<stop stop-color="#00AE8D"/>
<stop offset="1" stop-color="#039A7E"/>
</linearGradient>
<linearGradient id="paint7_linear_630:43931" x1="270" y1="89.4576" x2="294.365" y2="184.003" gradientUnits="userSpaceOnUse">
<stop stop-color="#00AE8D"/>
<stop offset="1" stop-color="#039A7E"/>
</linearGradient>
<linearGradient id="paint8_linear_630:43931" x1="130" y1="120.458" x2="154.365" y2="215.003" gradientUnits="userSpaceOnUse">
<stop stop-color="#00AE8D"/>
<stop offset="1" stop-color="#039A7E"/>
</linearGradient>
<linearGradient id="paint9_linear_630:43931" x1="307" y1="120.458" x2="331.365" y2="215.003" gradientUnits="userSpaceOnUse">
<stop stop-color="#00AE8D"/>
<stop offset="1" stop-color="#039A7E"/>
</linearGradient>
<linearGradient id="paint10_linear_630:43931" x1="93" y1="151.458" x2="117.365" y2="246.003" gradientUnits="userSpaceOnUse">
<stop stop-color="#00AE8D"/>
<stop offset="1" stop-color="#039A7E"/>
</linearGradient>
<linearGradient id="paint11_linear_630:43931" x1="270" y1="151.458" x2="294.365" y2="246.003" gradientUnits="userSpaceOnUse">
<stop stop-color="#00AE8D"/>
<stop offset="1" stop-color="#039A7E"/>
</linearGradient>
<linearGradient id="paint12_linear_630:43931" x1="213" y1="68.4576" x2="237.365" y2="163.003" gradientUnits="userSpaceOnUse">
<stop stop-color="#00AE8D"/>
<stop offset="1" stop-color="#039A7E"/>
</linearGradient>
<linearGradient id="paint13_linear_630:43931" x1="184" y1="89.4576" x2="208.365" y2="184.003" gradientUnits="userSpaceOnUse">
<stop stop-color="#00AE8D"/>
<stop offset="1" stop-color="#039A7E"/>
</linearGradient>
<linearGradient id="paint14_linear_630:43931" x1="221" y1="120.458" x2="245.365" y2="215.003" gradientUnits="userSpaceOnUse">
<stop stop-color="#00AE8D"/>
<stop offset="1" stop-color="#039A7E"/>
</linearGradient>
<linearGradient id="paint15_linear_630:43931" x1="184" y1="151.458" x2="208.365" y2="246.003" gradientUnits="userSpaceOnUse">
<stop stop-color="#00AE8D"/>
<stop offset="1" stop-color="#039A7E"/>
</linearGradient>
<linearGradient id="paint16_linear_630:43931" x1="38" y1="182.458" x2="62.365" y2="277.003" gradientUnits="userSpaceOnUse">
<stop stop-color="#00AE8D"/>
<stop offset="1" stop-color="#039A7E"/>
</linearGradient>
<linearGradient id="paint17_linear_630:43931" x1="124" y1="182.458" x2="148.365" y2="277.003" gradientUnits="userSpaceOnUse">
<stop stop-color="#00AE8D"/>
<stop offset="1" stop-color="#039A7E"/>
</linearGradient>
<linearGradient id="paint18_linear_630:43931" x1="301" y1="182.458" x2="325.365" y2="277.003" gradientUnits="userSpaceOnUse">
<stop stop-color="#00AE8D"/>
<stop offset="1" stop-color="#039A7E"/>
</linearGradient>
<linearGradient id="paint19_linear_630:43931" x1="215" y1="182.458" x2="239.365" y2="277.003" gradientUnits="userSpaceOnUse">
<stop stop-color="#00AE8D"/>
<stop offset="1" stop-color="#039A7E"/>
</linearGradient>
</defs>
</svg>
