<svg width="74" height="47" viewBox="0 0 74 47" fill="none" xmlns="http://www.w3.org/2000/svg">
<path d="M8.625 5.555C8.625 9.26 6.465 9.71 4.215 9.71H2.82V1.415H4.215C6.465 1.415 8.625 1.865 8.625 5.555ZM1.29 0.125V11H4.26C7.71 11 10.185 9.71 10.185 5.555C10.185 1.415 7.71 0.125 4.26 0.125H1.29ZM14.7416 2.795C13.7816 2.795 12.7766 3.08 12.0116 3.5V4.805C12.6266 4.43 13.5866 4.025 14.5466 4.025C15.5666 4.025 16.4816 4.4 16.5116 5.78C13.4216 6.14 11.2466 6.905 11.2466 8.75C11.2466 10.235 12.4766 11.195 13.9466 11.195C15.1916 11.195 16.1066 10.58 16.5866 9.725V11H17.9066C17.8466 9.335 17.8466 9.305 17.8616 7.955L17.8766 6.02C17.8916 3.71 16.8566 2.795 14.7416 2.795ZM14.2766 10.1C13.2716 10.1 12.7466 9.44 12.7466 8.675C12.7466 7.55 14.3066 7.04 16.6016 6.845C16.6316 9.515 15.2816 10.1 14.2766 10.1ZM20.3079 2.93H19.0329V4.025H20.3079V8.885C20.3079 10.355 20.7429 11.105 22.2429 11.105C22.5879 11.105 23.0229 11.045 23.3979 10.97V9.875C23.0379 9.935 22.7679 9.95 22.5429 9.95C21.8679 9.95 21.6729 9.65 21.6729 8.72V4.025H23.3529V2.93H21.6729V0.904999H20.3079V2.93ZM27.8373 2.795C26.8773 2.795 25.8723 3.08 25.1073 3.5V4.805C25.7223 4.43 26.6823 4.025 27.6423 4.025C28.6623 4.025 29.5773 4.4 29.6073 5.78C26.5173 6.14 24.3423 6.905 24.3423 8.75C24.3423 10.235 25.5723 11.195 27.0423 11.195C28.2873 11.195 29.2023 10.58 29.6823 9.725V11H31.0023C30.9423 9.335 30.9423 9.305 30.9573 7.955L30.9723 6.02C30.9873 3.71 29.9523 2.795 27.8373 2.795ZM27.3723 10.1C26.3673 10.1 25.8423 9.44 25.8423 8.675C25.8423 7.55 27.4023 7.04 29.6973 6.845C29.7273 9.515 28.3773 10.1 27.3723 10.1ZM1.29 27H5.175C7.35 27 9.075 26.1 9.075 23.79C9.075 22.455 8.46 21.645 7.425 21.21C8.175 20.775 8.625 19.845 8.625 18.81C8.625 16.65 6.825 16.125 4.8 16.125H1.29V27ZM2.82 21.975H5.1C6.735 21.975 7.5 22.53 7.5 23.805C7.5 25.035 6.735 25.71 5.19 25.71H2.82V21.975ZM2.82 17.415H5.04C6.255 17.415 7.08 17.91 7.08 19.02C7.08 20.295 6.285 20.79 5.04 20.79H2.82V17.415ZM14.768 18.9C14.618 18.885 14.498 18.885 14.363 18.885C13.313 18.915 12.488 19.425 12.083 20.34V18.93H10.748V27H12.113V22.77C12.113 21 12.743 20.295 14.003 20.295C14.228 20.295 14.483 20.325 14.768 20.355V18.9ZM16.717 22.995C16.717 20.79 17.797 19.995 19.087 19.995C20.377 19.995 21.457 20.85 21.457 22.995C21.457 25.065 20.377 25.995 19.087 25.995C17.797 25.995 16.717 25.14 16.717 22.995ZM15.262 22.995C15.262 25.92 17.152 27.195 19.087 27.195C21.022 27.195 22.912 25.92 22.912 22.995C22.912 20.07 21.022 18.795 19.087 18.795C17.152 18.795 15.262 20.07 15.262 22.995ZM24.5468 15.675V27H25.9118V23.205L29.4668 27H31.2218L27.4118 22.86L30.7118 18.93H29.1068L25.9118 22.845V15.675H24.5468ZM38.5303 23.355C38.6653 20.775 37.4203 18.795 35.0653 18.795C33.0253 18.795 31.3453 20.43 31.3453 22.98C31.3453 25.365 32.8903 27.195 35.4403 27.195C36.5803 27.195 37.5103 26.835 38.0053 26.565V25.215C37.4203 25.59 36.6553 25.965 35.5603 25.965C34.3003 25.965 32.9803 25.215 32.8003 23.355H38.5303ZM34.9603 19.95C36.0853 19.95 37.0153 20.64 37.0603 22.26H32.8153C32.9503 20.52 33.9853 19.95 34.9603 19.95ZM44.1088 18.9C43.9588 18.885 43.8388 18.885 43.7038 18.885C42.6538 18.915 41.8288 19.425 41.4238 20.34V18.93H40.0888V27H41.4538V22.77C41.4538 21 42.0838 20.295 43.3438 20.295C43.5688 20.295 43.8238 20.325 44.1088 20.355V18.9ZM47.2676 25.995C46.3976 25.995 45.4826 25.68 44.9126 25.32V26.715C45.3926 26.985 46.2776 27.195 47.2826 27.195C48.8276 27.195 50.3876 26.4 50.3876 24.81C50.3876 23.475 49.3826 22.875 47.7776 22.29L47.4926 22.185C46.7876 21.93 46.2626 21.585 46.2626 20.94C46.2626 20.265 46.9376 19.995 47.7476 19.995C48.6326 19.995 49.2926 20.22 49.8476 20.415V19.125C49.3526 18.915 48.5576 18.795 47.7626 18.795C46.3376 18.795 44.9576 19.62 44.9576 21.045C44.9576 22.35 46.0376 23.04 47.2376 23.49L47.4776 23.58C48.5576 23.985 49.0976 24.36 49.0976 24.945C49.0976 25.695 48.3176 25.995 47.2676 25.995Z" fill="#F6F7FA"/>
<path d="M8.205 32.125H5.55L4.08 39.64L2.595 32.125H0L2.49 43H5.235L6.87 35.335L8.52 43H11.28L13.74 32.125H11.175L9.81 39.67L8.205 32.125ZM13.5304 40.735C13.5304 42.115 14.7454 43.195 16.3954 43.195C17.3554 43.195 18.2404 42.835 18.8404 41.875L18.9154 43H21.2254C21.1204 42.31 21.1054 40.87 21.1204 39.82L21.1504 38.485C21.1954 35.8 19.8304 34.69 17.4154 34.69C16.1254 34.69 14.8504 35.08 14.3704 35.305V37.345C15.1204 36.97 16.0054 36.685 16.9954 36.685C18.0004 36.685 18.5404 36.925 18.7054 37.75C15.4354 38.095 13.5304 38.89 13.5304 40.735ZM17.2204 41.515C16.4854 41.515 16.0804 41.035 16.0804 40.48C16.0804 39.655 16.9954 39.28 18.8104 39.175C18.9004 40.93 17.9704 41.515 17.2204 41.515ZM25.9201 39.94V36.685H27.9901V34.93H25.9201V32.725H23.4451V34.93H21.8701V36.685H23.4451V40.495C23.4451 42.655 24.6601 43.195 26.3551 43.195C27.0001 43.195 27.5551 43.06 28.0051 42.925V41.02C27.7201 41.14 27.3151 41.245 26.8951 41.245C26.3551 41.245 25.9201 41.125 25.9201 39.94ZM33.6219 36.715C34.1919 36.715 34.7019 36.79 35.2419 36.955V34.9C34.7169 34.78 34.0719 34.69 33.2919 34.69C30.8169 34.69 28.8669 36.265 28.8669 38.935C28.8669 41.605 30.8169 43.195 33.2919 43.195C34.0569 43.195 34.7319 43.105 35.2569 43V40.945C34.7319 41.095 34.1769 41.17 33.6219 41.17C32.5119 41.17 31.3869 40.645 31.3869 38.935C31.3869 37.225 32.5119 36.715 33.6219 36.715ZM39.1315 35.995V31.675H36.6565V43H39.1315V38.86C39.1315 37.375 39.5965 36.67 40.6465 36.67C41.8465 36.67 41.8765 37.615 41.8765 38.77V43H44.3515V38.155C44.3515 35.965 43.7065 34.75 41.6365 34.75C40.3765 34.75 39.4915 35.395 39.1315 35.995Z" fill="#EF6A6E"/>
<path d="M48.5979 43V40.33H45.8079V43H48.5979ZM53.7376 36.61C54.7126 36.61 55.4926 37.225 55.4926 38.935C55.4926 40.63 54.7426 41.275 53.7376 41.275C52.7326 41.275 51.9826 40.63 51.9826 38.935C51.9826 37.225 52.7626 36.61 53.7376 36.61ZM53.7376 34.69C51.5026 34.69 49.4626 36.01 49.4626 38.935C49.4626 41.86 51.5026 43.195 53.7376 43.195C55.9726 43.195 58.0126 41.86 58.0126 38.935C58.0126 36.01 55.9726 34.69 53.7376 34.69ZM64.268 34.885C64.148 34.87 64.013 34.87 63.893 34.87C62.738 34.915 62.063 35.515 61.688 36.46V34.93H59.303V43H61.778V38.95C61.778 37.69 62.408 37.255 63.593 37.255C63.818 37.255 63.998 37.27 64.268 37.3V34.885ZM70.697 42.22C70.697 43.555 69.587 44.125 68.192 44.125C67.292 44.125 66.272 43.795 65.492 43.285V45.58C66.302 45.955 67.637 46.12 68.642 46.12C71.057 46.12 73.157 44.98 73.157 41.935V34.93H70.697V36.025C70.172 35.14 69.092 34.75 68.207 34.75C66.137 34.75 64.652 36.16 64.652 38.725C64.652 41.29 66.137 42.715 68.207 42.715C69.092 42.715 70.172 42.325 70.697 41.44V42.22ZM69.017 36.67C69.992 36.67 70.802 37.135 70.802 38.725C70.802 40.3 69.992 40.795 69.017 40.795C68.027 40.795 67.217 40.15 67.217 38.725C67.217 37.3 68.027 36.67 69.017 36.67Z" fill="white"/>
</svg>
